<?xml version="1.0" encoding="utf-8" ?>
<svg baseProfile="full" height="200mm" version="1.1" viewBox="0,0,200,200" width="200mm" xmlns="http://www.w3.org/2000/svg" xmlns:ev="http://www.w3.org/2001/xml-events" xmlns:xlink="http://www.w3.org/1999/xlink"><defs /><rect fill="#1a1a1a" height="200" width="200" x="0" y="0" /><text alignment-baseline="middle" fill="#e1ed5e" style="dominant-baseline: central; font-size:9.0px; font-family:Arial;" text-anchor="middle" x="100.0" y="100.0">2024</text><line stroke="#e1ed5e" stroke-width="0.3" x1="100.0" x2="100.0" y1="15.0" y2="10.0" /><path d="M 100.0 14.0 a86.0,86.0 0 0,1 42.35913384403234,11.155469271406648" fill="none" id="id25" stroke="none" /><text fill="#e1ed5e" style="font-size:6.75px; font-family:Arial;" text-anchor="middle"><textPath startOffset="22.145653131862478" xlink:href="#id25">January</textPath></text><path d="M 100.0 79.0 l 0.0 -52.84611452394499 a73.84611452394499,73.84611452394499 0 0,0 1.267666753021925,0.010881394449949 l -0.9071738281730702 52.83832752768948" fill="#40ffc6" stroke="none" /><path d="M 100.72087961077811 79.0123766808444 l 0.48053373788865333 -13.990215470329277 a34.99846568662044,34.99846568662044 0 0,0 0.6002640837531547,0.02577792253374791 l -0.7206235822426443 13.9799049793697" fill="#ff9b0e" stroke="none" /><path d="M 101.08105385017728 79.02784411241856 l 0.8459898662407166 -16.411977397060294 a37.433767095082004,37.433767095082004 0 0,0 0.6414644052439641,0.03858890572284094 l -1.1275986236171431 16.395036513512764" fill="#ffbc11" stroke="none" /><path d="M 102.87502721639298 79.19773525538626 l 2.3209200311312004 -16.793021180245088 a37.95264670047324,37.95264670047324 0 0,0 0.6446074406571547,0.09473509550026281 l -2.6088525773960374 16.750705011445945" fill="#ffc312" stroke="none" /><path d="M 103.23170211078529 79.25015418208739 l 2.1062925292672703 -13.52390899020602 a34.68694935309627,34.68694935309627 0 0,0 0.587568011207385,0.09668409264832438 l -2.3381380435277257 13.485758899062027" fill="#ff970d" stroke="none" /><path d="M 104.29559338865022 79.4440306129975 l 5.220960618861656 -24.984186570272453 a46.52387134354596,46.52387134354596 0 0,0 0.7803550481701403,0.1700747507151662 l -5.64907808365093 24.89088036142357" fill="#cfff1d" stroke="none" /><path d="M 104.64783097203109 79.52079915486377 l 5.80807613478531 -25.591455111830914 a47.24226215722111,47.24226215722111 0 0,0 0.7893233702647575,0.18627816616637147 l -6.246531658789952 25.487980802018313" fill="#c6ff1e" stroke="none" /><path d="M 106.72888874123014 80.10723608172694 l 7.661363225597742 -22.649459041448345 a44.91013344472982,44.91013344472982 0 0,0 0.7281733911723087,0.25329650470226517 l -8.049042388815069 22.51460410417749" fill="#e2ff1b" stroke="none" /><path d="M 107.06938296918511 80.22567764915836 l 8.73689816107196 -24.438659121536766 a46.95344773119007,46.95344773119007 0 0,0 0.7566455275940831,0.2778507183651592 l -9.155132840320167 24.285077554162886" fill="#caff1d" stroke="none" /><path d="M 109.06512990194946 81.05736502329252 l 11.42447465536105 -23.87275808928138 a47.46558519927977,47.46558519927977 0 0,0 0.7319639656935657,0.3580402548027977 l -11.832598870316684 23.67312408438136" fill="#c4ff1e" stroke="none" /><path d="M 109.3889696526874 81.21577127319529 l 11.660967408986464 -23.329746190362947 a47.08170274771567,47.08170274771567 0 0,0 0.7198406241744999,0.36755575177101285 l -12.059735254874543 23.1261324869191" fill="#c8ff1d" stroke="none" /><path d="M 110.02825361518725 81.54914285379988 l 6.382673020957401 -11.743399463116944 a34.36584998579562,34.36584998579562 0 0,0 0.5159063779513176,0.286164571222759 l -6.583323587064819 11.632101976461039" fill="#ff920d" stroke="none" /><path d="M 110.34350942703115 81.72400993836675 l 7.099298687123314 -12.543780538485215 a35.41341292153497,35.41341292153497 0 0,0 0.5264921072796737,0.30397035986413296 l -7.313583262263385 12.42006328134491" fill="#ffa10e" stroke="none" /><line stroke="#e1ed5e" stroke-width="0.3" x1="143.13028292997686" x2="145.6673583964461" y1="26.7553504044142" y2="22.446841604673864" /><path d="M 143.63769802327073 25.89364864446614 a86.0,86.0 0 0,1 29.32050498858742,28.57503671076993" fill="none" id="id26" stroke="none" /><text fill="#e1ed5e" style="font-size:6.75px; font-family:Arial;" text-anchor="middle"><textPath startOffset="20.669276256404974" xlink:href="#id26">February</textPath></text><path d="M 113.03279911837588 83.53348406188908 l 16.252881198929266 -20.53498445510786 a47.188580218065084,47.188580218065084 0 0,0 0.6308646449643244,0.5081799014181925 l -16.602996614248852 20.25295625989626" fill="#c7ff1e" stroke="none" /><path d="M 113.31354834802062 83.75963576809568 l 16.461750612313786 -20.080659103814142 a46.965787168225944,46.965787168225944 0 0,0 0.6191112049740468,0.5164845866423814 l -16.804036151449726 19.79511233325989" fill="#c9ff1d" stroke="none" /><path d="M 113.86319453409587 84.22622945171908 l 12.381479821543492 -14.087851200014521 a39.75549503492348,39.75549503492348 0 0,0 0.5087472329444565,0.45492491279004416 l -12.621492081311324 13.873230757341089" fill="#ffda14" stroke="none" /><path d="M 114.39649973595853 84.71141617570332 l 17.13676466631062 -18.19865021938206 a45.99719130294295,45.99719130294295 0 0,0 0.5702064032891822,0.5462448357603638 l -17.446643555465112 17.901793253316114" fill="#d5ff1c" stroke="none" /><path d="M 114.65682725009322 84.96080404539774 l 17.406191627121636 -17.860286011215326 a45.93923261374522,45.93923261374522 0 0,0 0.5600387967689484,0.5552521691487641 l -17.710222344020547 17.5588538318379" fill="#d6ff1c" stroke="none" /><path d="M 114.91283532996326 85.21462403516908 l 17.170035668796384 -17.02328410900097 a45.17855096409843,45.17855096409843 0 0,0 0.5413104632118039,0.5554322221043453 l -17.459732933159 16.726029194828882" fill="#dfff1b" stroke="none" /><path d="M 115.16444852881244 85.47280134310134 l 18.5426075912268 -17.763398621642065 a46.67813519073332,46.67813519073332 0 0,0 0.5493442287838062,0.5833845340320651 l -18.84480765374687 17.442472627665506" fill="#cdff1d" stroke="none" /><path d="M 115.41159269507618 85.73525988315684 l 12.202837153844074 -11.29476389181743 a37.627715597012724,37.627715597012724 0 0,0 0.4346938245668206,0.4778046603488486 l -12.394928679252772 11.08362165591091" fill="#ffbf11" stroke="none" /><path d="M 117.01052211995028 87.68569379921539 l 20.693533245400374 -14.9805222298915 a46.54678775225496,46.54678775225496 0 0,0 0.4629962463512672,0.6512622031015068 l -20.9476445902816 14.623082800080489" fill="#cfff1d" stroke="none" /><path d="M 117.81537515405839 88.88188828441811 l 19.516610396944014 -12.179808329957076 a44.00534312590436,44.00534312590436 0 0,0 0.39443882435368793,0.6442861763532884 l -19.722817185753104 11.842985037479233" fill="#eeff19" stroke="none" /><line stroke="#e1ed5e" stroke-width="0.3" x1="172.87174338648825" x2="177.1583165268699" y1="56.24261187166439" y2="53.66864786411523" /><path d="M 173.72905801456457 55.72781907015455 a86.0,86.0 0 0,1 12.242430191666344,42.057860355516425" fill="none" id="id27" stroke="none" /><text fill="#e1ed5e" style="font-size:6.75px; font-family:Arial;" text-anchor="middle"><textPath startOffset="22.145653131862474" xlink:href="#id27">March</textPath></text><path d="M 118.00360718960297 89.18935116829356 l 22.218345250190072 -13.341477937828447 a46.91620919853455,46.91620919853455 0 0,0 0.4086765754030281,0.6940221702676123 l -22.444095535722866 12.95810459926728" fill="#caff1d" stroke="none" /><path d="M 118.18653347947321 89.5 l 21.71829429968907 -12.539063060265004 a46.07812612053,46.07812612053 0 0,0 0.3896160857782453,0.6884142912778703 l -21.930343750488692 12.164391998888014" fill="#d4ff1c" stroke="none" /><path d="M 118.8641267826498 90.77261029715802 l 13.68404509203462 -6.693552170758302 a36.23340837578708,36.23340837578708 0 0,0 0.26850809038483453,0.5610786386369296 l -13.796932440379365 6.457661030056269" fill="#ffac0f" stroke="none" /><path d="M 119.31412917781788 91.75594674310238 l 37.51579350321048 -16.013261419544023 a61.79043151850918,61.79043151850918 0 0,0 0.408035043169311,0.9791355636645178 l -37.785154390916276 15.366893346438228" fill="#30ff39" stroke="none" /><path d="M 119.4528033332814 92.08871423366111 l 17.13143148514023 -6.967204044751816 a39.49399569944959,39.49399569944959 0 0,0 0.25001829138890536,0.6302094183360659 l -17.24850845149526 6.672093609202185" fill="#ffd714" stroke="none" /><path d="M 119.58574465831526 92.42381321644754 l 17.184087330159798 -6.647174135546322 a39.42492283182848,39.42492283182848 0 0,0 0.23874478462819407,0.6332989058130152 l -17.295662798602432 6.35120694953915" fill="#ffd614" stroke="none" /><path d="M 119.71291397450082 92.76114493625339 l 18.951489377669873 -6.959249404960665 a41.18886083741179,41.18886083741179 0 0,0 0.23803205463390384,0.6658180209901114 l -19.068161602347722 6.632896427589636" fill="#ffed16" stroke="none" /><path d="M 120.16314734710363 94.1308016681162 l 25.097214207268635 -7.305433285016917 a47.13885071014714,47.13885071014714 0 0,0 0.21949085258615936,0.7788956034638037 l -25.218923551929375 6.8735297576500995" fill="#c7ff1e" stroke="none" /><path d="M 120.26092885502905 94.47779374421319 l 24.475810213237793 -6.670990912711473 a46.36863034047985,46.36863034047985 0 0,0 0.2027203821872853,0.7697623105820112 l -24.58672007622981 6.249848097756663" fill="#d1ff1d" stroke="none" /><path d="M 120.35273937422433 94.82641323984039 l 25.139588217227978 -6.39038501722435 a46.939080870380764,46.939080870380764 0 0,0 0.19180755393043866,0.7826402745244485 l -25.245583297674706 5.957888918091807" fill="#caff1d" stroke="none" /><path d="M 120.51834098615036 95.52812308129327 l 15.53395835931528 -3.3855539241726307 a36.89861118722078,36.89861118722078 0 0,0 0.12957085982606137,0.6200434694469783 l -15.589786929965708 3.118394003440248" fill="#ffb510" stroke="none" /><path d="M 120.592083275326 95.88100663000786 l 17.04981519372323 -3.410440546668068 a38.38756172850216,38.38756172850216 0 0,0 0.12370612535311024,0.6472827210803771 l -17.1058476113585 3.1172552605543764" fill="#ffc912" stroke="none" /><path d="M 120.7213421655516 96.59031103205396 l 16.79164231234548 -2.7630583525271497 a38.01745406943181,38.01745406943181 0 0,0 0.10043579164162449,0.644869830114773 l -16.83659959612537 2.4744003404809356" fill="#ffc412" stroke="none" /><path d="M 120.77682067341334 96.94652285012252 l 19.752637293471537 -2.9029574627177257 a40.96481510251951,40.96481510251951 0 0,0 0.0962780120767229,0.6966197345491154 l -19.799559822103472 2.5634494199685247" fill="#ffea16" stroke="none" /><path d="M 120.82617615685814 97.30363454192243 l 18.823824557088976 -2.4371209550118467 a39.98093594914181,39.98093594914181 0 0,0 0.08228060195752014,0.6814014180341849 l -18.862887245306162 2.113625860054249" fill="#ffdd14" stroke="none" /><path d="M 120.9064616781168 98.02013634271609 l 16.48713998075531 -1.5613492977923367 a37.560905662877765,37.560905662877765 0 0,0 0.05527959629673641,0.6424327026482858 l -16.51151319974979 1.2780955477683889" fill="#ffbe11" stroke="none" /><path d="M 120.93736805541906 98.37931529534042 l 17.429865884029688 -1.3491818535999511 a38.4820055030693,38.4820055030693 0 0,0 0.04532820869381252,0.6590622062337131 l -17.450458053888568 1.049776223211904" fill="#ffca12" stroke="none" /><path d="M 120.96210409425399 98.7389718711861 l 18.085270513327824 -1.0879649643933713 a39.11796559506592,39.11796559506592 0 0,0 0.03456986976842375,0.6706462380924921 l -18.10128197255282 0.7773469329241485" fill="#ffd213" stroke="none" /><path d="M 120.98066250479742 99.09900007780936 l 22.00237618624001 -0.9448767038351867 a43.022655376368036,43.022655376368036 0 0,0 0.025353277452823283,0.7381330101867708 l -22.01535415068968 0.5670374290842959" fill="#faff18" stroke="none" /><line stroke="#e1ed5e" stroke-width="0.3" x1="184.99686870605535" x2="189.99668451229388" y1="99.2704041080226" y2="99.22748670261217" /><path d="M 185.99683186730306 99.26182062694052 a86.0,86.0 0 0,1 -10.086455211305974,41.156179273409016" fill="none" id="id28" stroke="none" /><text fill="#e1ed5e" style="font-size:6.75px; font-family:Arial;" text-anchor="middle"><textPath startOffset="21.40746469413373" xlink:href="#id28">April</textPath></text><path d="M 120.99922638620191 100.18025310272382 l 11.997203270047882 0.1029815610186243 a32.99764524832925,32.99764524832925 0 0,0 -0.009724199271531501,0.566385856929467 l -11.993667639177682 -0.30891433391716233" fill="#ff800b" stroke="none" /><path d="M 120.99303781780057 100.54070618675476 l 13.716609476980697 0.35329120396351477 a34.72115848676032,34.72115848676032 0 0,0 -0.020461200195513462,0.5957055185645906 l -13.708523589788339 -0.5887029870922161" fill="#ff970e" stroke="none" /><path d="M 120.98066250479742 100.90099992219065 l 14.292199947952676 0.6137685613165923 a35.30537280881275,35.30537280881275 0 0,0 -0.031200552522604907,0.6052823836439425 l -14.2795578059735 -0.8590227383372655" fill="#ff9f0e" stroke="none" /><path d="M 120.96210409425399 101.26102812881392 l 13.9925874069657 0.8417593117433205 a35.017883616312474,35.017883616312474 0 0,0 -0.04124779662144293,0.5997339102287933 l -13.976075649179192 -1.0818366461264572" fill="#ff9b0e" stroke="none" /><path d="M 120.93736805541906 101.62068470465957 l 13.311254186546389 1.0303752602938903 a34.35107340987512,34.35107340987512 0 0,0 -0.05055558264491448,0.5875325032800406 l -13.291604981203735 -1.2587288109495882" fill="#ff920d" stroke="none" /><path d="M 120.9064616781168 101.97986365728391 l 14.445534451665807 1.3680071315382933 a35.51016571601453,35.51016571601453 0 0,0 -0.06267985169867733,0.6063707066069762 l -14.419922207485463 -1.615782360428201" fill="#ffa20f" stroke="none" /><path d="M 120.7213421655516 103.40968896794604 l 14.29943963343491 2.3529673501067547 a35.49173658265004,35.49173658265004 0 0,0 -0.10408405118857364,0.6003291479954541 l -14.2569407647541 -2.5980895310227967" fill="#ffa20f" stroke="none" /><path d="M 120.26092885502905 105.52220625578681 l 14.589489491048218 3.976430237363211 a36.121679835323285,36.121679835323285 0 0,0 -0.16819201538557896,0.5968541275318886 l -14.51907898358806 -4.226292288798108" fill="#ffaa0f" stroke="none" /><path d="M 119.71291397450082 107.23885506374661 l 15.975885943868574 5.8665666076666225 a38.01897574631583,38.01897574631583 0 0,0 -0.23023081655877864,0.6107145939886324 l -15.872824443495354 -6.139949481849413" fill="#ffc412" stroke="none" /><line stroke="#e1ed5e" stroke-width="0.3" x1="174.33088141563837" x2="178.70328620479359" y1="141.23008692659167" y2="143.65538615756765" /><path d="M 175.20536237346943 141.71514677278685 a86.0,86.0 0 0,1 -30.301960400862466,31.631185727798858" fill="none" id="id29" stroke="none" /><text fill="#e1ed5e" style="font-size:6.75px; font-family:Arial;" text-anchor="middle"><textPath startOffset="22.145653131862474" xlink:href="#id29">May</textPath></text><path d="M 110.96478420261333 117.91015095944535 l 1.689902428193552 2.7603286153562543 a24.236538935586754,24.236538935586754 0 0,0 -0.356700965686198,0.21418868104337502 l -1.6422687059499173 -2.788931296935553" fill="#ff0000" stroke="none" /><line stroke="#e1ed5e" stroke-width="0.3" x1="143.1302829299769" x2="145.66735839644613" y1="173.24464959558577" y2="177.55315839532614" /><path d="M 143.63769802327073 174.10635135553383 a86.0,86.0 0 0,1 -40.68552437913181,11.842963189579606" fill="none" id="id30" stroke="none" /><text fill="#e1ed5e" style="font-size:6.75px; font-family:Arial;" text-anchor="middle"><textPath startOffset="21.407464694133747" xlink:href="#id30">June</textPath></text><path d="M 109.06512990194946 118.94263497670748 l 7.1692173610561545 14.980906948719637 a37.60798755347153,37.60798755347153 0 0,0 -0.5847348754661131,0.2736854467128566 l -6.910993771718535 -15.101768627003027" fill="#ffbe11" stroke="none" /><path d="M 108.07796709384702 119.3841803445677 l 5.452786663395999 13.084702974864982 a35.17541302174119,35.17541302174119 0 0,0 -0.5593653454473403,0.22748901635424726 l -5.227366856758218 -13.17637924779852" fill="#ff9e0e" stroke="none" /><path d="M 107.06938296918513 119.77432235084164 l 5.105354630359573 14.280585535703281 a36.16574327701322,36.16574327701322 0 0,0 -0.586391754072598,0.20397749147863847 l -4.859457104241953 -14.36612145975051" fill="#ffab0f" stroke="none" /><path d="M 106.0420521117495 120.11202640906438 l 3.0348092548344385 10.10189299112648 a31.547905442190835,31.547905442190835 0 0,0 -0.5199995999593416,0.15136430499279177 l -2.86094964249349 -10.152500990421789" fill="#ff6b09" stroke="none" /><path d="M 105.69591212413111 120.21278271476187 l 4.740645314953268 16.822877809675038 a38.47807013950468,38.47807013950468 0 0,0 -0.6373042119361456,0.17370009692914698 l -4.4511597020824265 -16.901778400748327" fill="#ffca12" stroke="none" /><path d="M 104.64783097203109 120.47920084513623 l 2.858553689817577 12.595314995888783 a33.91562189920526,33.91562189920526 0 0,0 -0.5688741284111989,0.12398346855667162 l -2.641917144787242 -12.642529922579174" fill="#ff8c0c" stroke="none" /><path d="M 101.08105385017728 120.97215588758144 l 0.817192015420712 15.853306784559837 a36.87435475209743,36.87435475209743 0 0,0 -0.6324377464843751,0.02715959804617635 l -0.5449285083355072 -15.864998951031845" fill="#ffb410" stroke="none" /><path d="M 100.72087961077811 120.9876233191556 l 0.4426784584759273 12.888100313960688 a33.89570059827353,33.89570059827353 0 0,0 -0.5816932955172429,0.014982355884353345 l -0.2213718488879405 -12.893800387195087" fill="#ff8c0c" stroke="none" /><line stroke="#e1ed5e" stroke-width="0.3" x1="101.45913802915013" x2="101.54496967792366" y1="184.9874750549273" y2="189.98673829345242" /><path d="M 101.47630435890484 185.9873277026323 a86.0,86.0 0 0,1 -42.54439059252881,-10.42667462771756" fill="none" id="id31" stroke="none" /><text fill="#e1ed5e" style="font-size:6.75px; font-family:Arial;" text-anchor="middle"><textPath startOffset="22.145653131862474" xlink:href="#id31">July</textPath></text><path d="M 99.63950707515114 120.99690560180557 l -0.25229390450371036 14.69485510428946 a35.69702074402536,35.69702074402536 0 0,0 -0.6126062382612956,-0.015778563633679212 l 0.5045134568357498 -14.688358823305732" fill="#ffa50f" stroke="none" /><path d="M 99.27912038922189 120.98762331915562 l -0.4671050046041598 13.599252552784645 a34.607272213039096,34.607272213039096 0 0,0 -0.593554664143385,-0.025489791186852656 l 0.7004854293483835 -13.589230193171963" fill="#ff960d" stroke="none" /><path d="M 98.19965949673042 120.92268563240118 l -1.4005342873597624 16.27633137098815 a37.336476339415526,37.336476339415526 0 0,0 -0.6380989361848228,-0.06042863268566566 l 1.6797327869296004 -16.2498909827973" fill="#ffbb11" stroke="none" /><path d="M 97.48249496171623 120.84855314841334 l -1.045803259507733 8.660751222764075 a29.723664149897473,29.723664149897473 0 0,0 -0.5060413880122793,-0.06551718897972557 l 1.194322469410806 -8.641522437583951" fill="#ff5107" stroke="none" /><path d="M 97.12497278360702 120.80226474461374 l -2.009985943334059 14.543257012587578 a35.68149747221237,35.68149747221237 0 0,0 -0.6060330639362383,-0.08906599050390536 l 2.2593441128779825 -14.506609948784789" fill="#ffa40f" stroke="none" /><path d="M 96.76829788921471 120.74984581791261 l -1.944516746154785 12.48519241250748 a33.63571030664326,33.63571030664326 0 0,0 -0.5697608979458546,-0.09375393893753903 l 2.1585551471537032 -12.449972475074272" fill="#ff880c" stroke="none" /><path d="M 96.05791012581884 120.62667999033965 l -3.9126925675638193 20.472860859998306 a41.84339691415772,41.84339691415772 0 0,0 -0.704370850784658,-0.1408938972131168 l 4.263559903879435 -20.402677566122325" fill="#fff517" stroke="none" /><path d="M 95.70440661134978 120.55596938700252 l -3.5335091665477663 16.909120506648414 a38.27437533858851,38.27437533858851 0 0,0 -0.6419844511750733,-0.13991752312315212 l 3.8232560343419757 -16.845971525391544" fill="#ffc712" stroke="none" /><path d="M 95.35216902796893 120.47920084513623 l -3.3090364397453644 14.580225111716212 a35.9510095467792,35.9510095467792 0 0,0 -0.6006692043121498,-0.1417562966802195 l 3.558837797797402 -14.521272671389765" fill="#ffa80f" stroke="none" /><path d="M 95.00130118170881 120.39639698878247 l -3.8524520693455417 15.719319095422023 a37.18451048905416,37.18451048905416 0 0,0 -0.6186700542324243,-0.157263508495456 l 4.121727416803345 -15.650870355091305" fill="#ffb911" stroke="none" /><path d="M 94.6519064749342 120.30758222061772 l -4.001782640648095 15.19542050323473 a36.713531384546215,36.713531384546215 0 0,0 -0.6080785263291889,-0.1657345063561156 l 4.262042567911979 -15.124485502734471" fill="#ffb210" stroke="none" /><path d="M 93.95794788825049 120.11202640906438 l -2.2703899989563245 7.557389902197245 a28.89105904687031,28.89105904687031 0 0,0 -0.47375746709754873,-0.14677127433331938 l 2.399788098925507 -7.517302040057276" fill="#ff4506" stroke="none" /><path d="M 92.59220618246901 119.65005319985036 l -5.556287286468161 14.738712153997511 a36.751252787259865,36.751252787259865 0 0,0 -0.5884185988185142,-0.2276129546941984 l 5.808478147780204 -14.641159311165271" fill="#ffb310" stroke="none" /><path d="M 90.28995756902619 118.62028667847754 l -4.260353648327813 8.169789869353405 a30.213906865071387,30.213906865071387 0 0,0 -0.45782871824994736,-0.24376800516298958 l 4.399971182364322 -8.095451396467842" fill="#ff5808" stroke="none" /><line stroke="#e1ed5e" stroke-width="0.3" x1="58.13341422392154" x2="55.67067388415222" y1="173.97424548756322" y2="178.32567169271397" /><path d="M 57.64086615596768 174.84453072859336 a86.0,86.0 0 0,1 -31.369924170532247,-30.572349798747897" fill="none" id="id32" stroke="none" /><text fill="#e1ed5e" style="font-size:6.75px; font-family:Arial;" text-anchor="middle"><textPath startOffset="22.145653131862474" xlink:href="#id32">August</textPath></text><path d="M 89.34428304082925 118.09573695890944 l -8.386700490951608 14.2424509414923 a37.528283454301686,37.528283454301686 0 0,0 -0.5523220532548826,-0.3316535234779963 l 8.629955300763918 -14.096383417478386" fill="#ffbd11" stroke="none" /><path d="M 89.03521579738668 117.91015095944536 l -2.577308448819227 4.209839658896764 a25.936118798608376,25.936118798608376 0 0,0 -0.37772359469456696,-0.23572745940568302 l 2.6491961723035065 -4.1649764026495335" fill="#ff1a02" stroke="none" /><path d="M 88.1277618465304 117.32195027204791 l -8.896932482829634 12.980890380496984 a36.73718280616033,36.73718280616033 0 0,0 -0.5171281701879874,-0.3609956249888505 l 9.118455744191387 -12.826249939703004" fill="#ffb310" stroke="none" /><path d="M 87.83215693770417 117.11559508785305 l -9.191472048436157 12.92895651570557 a36.863198763244085,36.863198763244085 0 0,0 -0.5126073360584119,-0.37108818015577 l 9.412060394868522 -12.769267564176735" fill="#ffb410" stroke="none" /><path d="M 87.54013794807813 116.9041958592261 l -6.872976675754188 9.324512854050502 a32.583796802034044,32.583796802034044 0 0,0 -0.44740192465740225,-0.3357387451169432 l 7.032031589322356 -9.205155081669545" fill="#ff7a0b" stroke="none" /><path d="M 87.2517909369889 116.68781488649013 l -8.136052563384006 10.650353976265619 a34.40243974558007,34.40243974558007 0 0,0 -0.4662186777084692,-0.3625344636845665 l 8.317681185727702 -10.50911846096026" fill="#ff930d" stroke="none" /><path d="M 86.96720088162412 116.46651593811092 l -8.732189366599746 11.032836006578155 a35.07034475349503,35.07034475349503 0 0,0 -0.4688558225199578,-0.37767706205981966 l 8.920295959474966 -10.881310650724924" fill="#ff9c0e" stroke="none" /><path d="M 85.08716467003676 114.78537596483092 l -9.256559629652646 9.177444210780255 a34.034929168173456,34.034929168173456 0 0,0 -0.4077922571718925,-0.4184307803954413 l 9.412738687975347 -9.017190738317076" fill="#ff8e0d" stroke="none" /><path d="M 84.83555147118756 114.52719865689866 l -11.313699328244182 10.83826803022525 a36.66741351930546,36.66741351930546 0 0,0 -0.4315303496798474,-0.4582702771375512 l 11.498085511660282 -10.642456293143209" fill="#ffb210" stroke="none" /><path d="M 84.1078160697243 113.72728997021213 l -9.780168326156279 8.447876463024437 a33.92355636899042,33.92355636899042 0 0,0 -0.376883339336114,-0.4439676260782643 l 9.923746228999505 -8.27874205449662" fill="#ff8c0c" stroke="none" /><path d="M 83.8745106332314 113.45245675266167 l -7.6757869443263305 6.403414467779783 a30.99607033092815,30.99607033092815 0 0,0 -0.3373452602493696,-0.41150636593217793 l 7.78457902381433 -6.27070582014911" fill="#ff6309" stroke="none" /><path d="M 83.4222238831116 112.89097897827486 l -7.761982916008805 6.035764863422399 a30.83253966556642,30.83253966556642 0 0,0 -0.32131620661687976,-0.42061322885029095 l 7.86445109997998 -5.901630721331238" fill="#ff6108" stroke="none" /><path d="M 82.576782715395 111.72311816256416 l -13.459108458937095 9.05588883209887 a37.22210599918411,37.22210599918411 0 0,0 -0.3521487044733375,-0.5331980216738538 l 13.612581602331158 -8.823510932085954" fill="#ffb911" stroke="none" /><path d="M 81.99639281039703 110.81064883170644 l -13.556933547483812 8.140549072924971 a36.81325350519594,36.81325350519594 0 0,0 -0.3206719943694158,-0.5445711520334366 l 13.694679251982997 -7.906626752597976" fill="#ffb410" stroke="none" /><line stroke="#e1ed5e" stroke-width="0.3" x1="26.387840678322732" x2="22.057713659400548" y1="142.50000000000003" y2="145.00000000000006" /><path d="M 25.521815274538298 143.00000000000003 a86.0,86.0 0 0,1 -11.493303480769221,-40.785679425670985" fill="none" id="id33" stroke="none" /><text fill="#e1ed5e" style="font-size:6.75px; font-family:Arial;" text-anchor="middle"><textPath startOffset="21.40746469413373" xlink:href="#id33">September</textPath></text><path d="M 80.9802524753101 108.90220220490708 l -7.02891175027047 3.2898856096868845 a28.760731132948436,28.760731132948436 0 0,0 -0.205455070098529,-0.44895640690197675 l 7.084351285224055 -3.168740220570219" fill="#ff4306" stroke="none" /><path d="M 80.83023694016515 108.57439118712176 l -7.192923698823575 3.217303280187936 a28.879669519326676,28.879669519326676 0 0,0 -0.19853551319705182,-0.454288107360565 l 7.247093094037595 -3.0933531030515216" fill="#ff4506" stroke="none" /><path d="M 80.68587082218212 108.24405325689762 l -14.692365348165891 6.271297105084468 a36.9748166469674,36.9748166469674 0 0,0 -0.24416435580649998,-0.5859055690228608 l 14.797855548508878 -6.018159026620326" fill="#ffb610" stroke="none" /><path d="M 79.2786578344484 103.40968896794605 l -15.520104568982518 2.553827300733635 a36.72881685677993,36.72881685677993 0 0,0 -0.09703142641623798,-0.6230113632409707 l 15.561657487537023 -2.2870277555612146" fill="#ffb310" stroke="none" /><line stroke="#e1ed5e" stroke-width="0.3" x1="15.003131293944662" x2="10.003315487706104" y1="100.72959589197737" y2="100.7725132973878" /><path d="M 14.003168132696942 100.73817937305945 a86.0,86.0 0 0,1 10.791469493833604,-42.45332614584628" fill="none" id="id34" stroke="none" /><text fill="#e1ed5e" style="font-size:6.75px; font-family:Arial;" text-anchor="middle"><textPath startOffset="22.145653131862435" xlink:href="#id34">October</textPath></text><path d="M 79.01933749520258 99.09900007780938 l -12.968273442614917 -0.5569134606722266 a33.98022606448398,33.98022606448398 0 0,0 0.030029475507773466,-0.5825638024119083 l 12.956802377650574 0.779449056460847" fill="#ff8d0d" stroke="none" /><path d="M 79.56144815229197 95.17655741523228 l -15.42373700397965 -3.6399599362806967 a36.847427914512174,36.847427914512174 0 0,0 0.15056994908841378,-0.6143767744018425 l 15.358979528374936 3.9041925352906572" fill="#ffb410" stroke="none" /><path d="M 79.64726062577567 94.8264132398404 l -15.631674121356207 -3.973510434462585 a37.12879477856484,37.12879477856484 0 0,0 0.16232447265308717,-0.6163724623309363 l 15.561160167898395 4.241263401166306" fill="#ffb811" stroke="none" /><path d="M 79.94057633289273 93.78553927170692 l -17.96528752503899 -5.565691998415644 a39.80767086267062,39.80767086267062 0 0,0 0.2078250147273472,-0.6510088986124762 l 17.867097794534384 5.873269930719512" fill="#ffdb14" stroke="none" /><path d="M 80.5471966667186 92.08871423366112 l -37.054410978035484 -15.069706362016321 a61.001567753858744,61.001567753858744 0 0,0 0.40282575667700693,-0.9666351724571569 l 36.79025937682199 15.703574043914742" fill="#2fff30" stroke="none" /><path d="M 80.68587082218212 91.75594674310238 l -17.885582495104675 -7.6342916246839305 a40.44675987921674,40.44675987921674 0 0,0 0.27805436708352343,-0.6362428067987128 l 17.751894246004174 7.9401965012585105" fill="#ffe315" stroke="none" /><path d="M 80.83023694016515 91.42560881287825 l -57.50928917950456 -25.72317356136523 a84.0,84.0 0 0,0 0.600062140579813,-1.3112440711413145 l 57.05924257406971 26.706606614721213" fill="#4dd2ff" stroke="none" /><path d="M 80.9802524753101 91.09779779509293 l -21.140407708332674 -9.89477824926185 a44.341453996625766,44.341453996625766 0 0,0 0.3285928559091256,-0.6866326895218463 l 20.96743559446364 10.256223440848784" fill="#e9ff1a" stroke="none" /><path d="M 81.1358732173502 90.77261029715801 l -28.689265565061092 -14.033357425302363 a52.93758098680752,52.93758098680752 0 0,0 0.40630875703876035,-0.8128896895236146 l 28.44413689481059 14.523778970989747" fill="#84ff25" stroke="none" /><path d="M 81.29705330413844 90.45014215332179 l -33.55304875453243 -17.132425769001944 a58.67395776201901,58.67395776201901 0 0,0 0.4657369200111315,-0.8931119538360975 l 33.25400376554636 17.705883965942526" fill="#47ff2c" stroke="none" /><path d="M 81.46374523516351 90.13048839642627 l -21.259774795014486 -11.319632616767748 a45.08551653822948,45.08551653822948 0 0,0 0.3696038731928678,-0.6800294973230613 l 21.06232557220627 11.68291694756543" fill="#e0ff1b" stroke="none" /><path d="M 81.63589988554816 89.8137432299009 l -38.770100369926475 -21.50512112814049 a65.33498525352374,65.33498525352374 0 0,0 0.5524434989450805,-0.9761147285222794 l 38.395223505960026 22.167492626761874" fill="#35ff65" stroke="none" /><line stroke="#e1ed5e" stroke-width="0.3" x1="26.387840678322718" x2="22.05771365940052" y1="57.49999999999999" y2="54.99999999999999" /><path d="M 25.521815274538284 56.99999999999999 a86.0,86.0 0 0,1 29.574782752854787,-30.34633250058573" fill="none" id="id35" stroke="none" /><text fill="#e1ed5e" style="font-size:6.75px; font-family:Arial;" text-anchor="middle"><textPath startOffset="21.40746469413373" xlink:href="#id35">November</textPath></text><path d="M 81.99639281039701 89.18935116829357 l -4.049340279567864 -2.431512490884192 a25.723283782820655,25.723283782820655 0 0,0 0.23056886034913857,-0.37661690545775295 l 4.007003454763333 2.500666512466488" fill="#ff1602" stroke="none" /><path d="M 82.78059297857968 87.97951657250589 l -12.729439280524693 -8.886137235881343 a36.524241024007644,36.524241024007644 0 0,0 0.36330297559844665,-0.5110311328573255 l 12.575021206396272 9.10334559544819" fill="#ffb010" stroke="none" /><line stroke="#e1ed5e" stroke-width="0.3" x1="56.869717070023135" x2="54.33264160355391" y1="26.7553504044142" y2="22.446841604673864" /><path d="M 56.362301976729285 25.89364864446614 a86.0,86.0 0 0,1 42.16139366436587,-11.88097634709845" fill="none" id="id36" stroke="none" /><text fill="#e1ed5e" style="font-size:6.75px; font-family:Arial;" text-anchor="middle"><textPath startOffset="22.145653131862474" xlink:href="#id36">December</textPath></text></svg>