<?xml version="1.0" encoding="utf-8" ?>
<svg baseProfile="full" height="200mm" version="1.1" viewBox="0,0,200,200" width="200mm" xmlns="http://www.w3.org/2000/svg" xmlns:ev="http://www.w3.org/2001/xml-events" xmlns:xlink="http://www.w3.org/1999/xlink"><defs /><rect fill="#1a1a1a" height="200" width="200" x="0" y="0" /><text alignment-baseline="middle" fill="#e1ed5e" style="dominant-baseline: central; font-size:9.0px; font-family:Arial;" text-anchor="middle" x="100.0" y="100.0">2024</text><line stroke="#e1ed5e" stroke-width="0.3" x1="100.0" x2="100.0" y1="15.0" y2="10.0" /><path d="M 100.0 14.0 a86.0,86.0 0 0,1 42.35913384403234,11.155469271406648" fill="none" id="id25" stroke="none" /><text fill="#e1ed5e" style="font-size:6.75px; font-family:Arial;" text-anchor="middle"><textPath startOffset="22.145653131862478" xlink:href="#id25">January</textPath></text><path d="M 100.0 79.0 l 0.0 -63.0 a84.0,84.0 0 0,0 1.441971699395419,0.012377592777739643 l -1.0814787745465644 62.990716805416696" fill="#4dd2ff" stroke="none" /><path d="M 100.72087961077811 79.0123766808444 l 0.5728637906438314 -16.678304215372023 a37.688139633378164,37.688139633378164 0 0,0 0.6463950965153075,0.02775898671128602 l -0.8590846477599752 16.66601266023491" fill="#ffb911" stroke="none" /><path d="M 101.08105385017728 79.02784411241856 l 1.008538887925539 -19.56538499242562 a40.591361376644855,40.591361376644855 0 0,0 0.6955728879056132,0.041843937676550425 l -1.3442561279636147 19.54518907692438" fill="#ffdf14" stroke="none" /><path d="M 102.87502721639298 79.19773525538626 l 2.7668630566020727 -20.019642766282665 a41.20993883374126,41.20993883374126 0 0,0 0.6999309800685023,0.10286575062302011 l -3.1101191422782573 19.969195942360763" fill="#ffe715" stroke="none" /><path d="M 103.23170211078529 79.25015418208739 l 2.5109968923772494 -16.122401316693377 a37.31676835681761,37.31676835681761 0 0,0 0.6321149532322536,0.10401427500641701 l -2.7873893486625736 16.07692104319129" fill="#ffb410" stroke="none" /><path d="M 104.29559338865022 79.4440306129975 l 6.224119255527253 -29.78466379423168 a51.42804393717152,51.42804393717152 0 0,0 0.8626138054492518,0.1880026640043668 l -6.7344954775956385 29.673429672093594" fill="#99ff23" stroke="none" /><path d="M 104.64783097203109 79.52079915486377 l 6.924043513656588 -30.508613292937916 a52.28446681081584,52.28446681081584 0 0,0 0.8735684887033057,0.2061597847303039 l -7.446744156099778 30.385257364561383" fill="#90ff24" stroke="none" /><path d="M 106.72888874123014 80.10723608172694 l 9.133422344493425 -27.001340258699603 a49.504241429811174,49.504241429811174 0 0,0 0.8026623079114559,0.2792076166404647 l -9.595590424449899 26.840574209490548" fill="#b0ff20" stroke="none" /><path d="M 107.06938296918511 80.22567764915836 l 10.41561123473196 -29.134318360514378 a51.940159400443946,51.940159400443946 0 0,0 0.837005400282106,0.30735997671642007 l -10.914205786668191 28.951227534789236" fill="#93ff23" stroke="none" /><path d="M 109.06512990194946 81.05736502329252 l 13.619580356501434 -28.459684750205433 a52.550699281763556,52.550699281763556 0 0,0 0.8103812074528752,0.3963980572853723 l -14.106121813216376 28.22169294282284" fill="#8cff24" stroke="none" /><path d="M 109.3889696526874 81.21577127319529 l 13.901512975628053 -27.812338205619636 a52.09305741601049,52.09305741601049 0 0,0 0.7964601273329782,0.40667821601930615 l -14.37690032467461 27.569602037927496" fill="#92ff23" stroke="none" /><path d="M 110.02825361518725 81.54914285379988 l 7.6090438046891355 -13.999783576163251 a36.93397275638089,36.93397275638089 0 0,0 0.5544595031396825,0.3075493398752351 l -7.848247495984919 13.86710132085487" fill="#ffaf10" stroke="none" /><path d="M 110.34350942703115 81.72400993836675 l 8.463362374278505 -14.953950371630377 a38.18281508937163,38.18281508937163 0 0,0 0.5676648794854998,0.32774147098044987 l -8.718819721624401 14.806462003373756" fill="#ffc011" stroke="none" /><line stroke="#e1ed5e" stroke-width="0.3" x1="143.13028292997686" x2="145.6673583964461" y1="26.7553504044142" y2="22.446841604673864" /><path d="M 143.63769802327073 25.89364864446614 a86.0,86.0 0 0,1 29.32050498858742,28.57503671076993" fill="none" id="id26" stroke="none" /><text fill="#e1ed5e" style="font-size:6.75px; font-family:Arial;" text-anchor="middle"><textPath startOffset="20.669276256404974" xlink:href="#id26">February</textPath></text><path d="M 113.03279911837588 83.53348406188908 l 19.375719951342738 -24.48058920368891 a52.22047039031653,52.22047039031653 0 0,0 0.6981360397032069,0.5623689751276613 l -19.793106761401205 24.144371934767843" fill="#90ff24" stroke="none" /><path d="M 113.31354834802062 83.75963576809568 l 19.624721664368625 -23.938969495421894 a51.95486974462466,51.95486974462466 0 0,0 0.6848781624089456,0.57134972161747 l -20.03277416093946 23.598557589892554" fill="#93ff23" stroke="none" /><path d="M 113.86319453409587 84.22622945171908 l 14.760465093489527 -16.79469973518613 a43.35918757404177,43.35918757404177 0 0,0 0.5548633385557306,0.4961622187936638 l -15.046593458868633 16.538841986509077" fill="#fbff18" stroke="none" /><path d="M 114.39649973595853 84.71141617570332 l 20.42943334061744 -21.695350247586795 a50.80016726436608,50.80016726436608 0 0,0 0.6297467267408938,0.6032831187704981 l -20.798852553223643 21.341454998510716" fill="#a1ff22" stroke="none" /><path d="M 114.65682725009322 84.96080404539774 l 20.7506281660838 -21.291972528968607 a50.731072356398855,50.731072356398855 0 0,0 0.6184554487480766,0.6131695365042998 l -21.11307553496184 20.932622982235646" fill="#a1ff22" stroke="none" /><path d="M 114.91283532996326 85.21462403516908 l 20.46909705431683 -20.29414855809537 a49.82423285912543,49.82423285912543 0 0,0 0.5969730766614945,0.6125469671123311 l -20.814456932129133 19.939778898915296" fill="#acff21" stroke="none" /><path d="M 115.16444852881244 85.47280134310134 l 22.10539580384808 -21.176469135803348 a51.61194813637995,51.61194813637995 0 0,0 0.607409137686334,0.645047455109273 l -22.465660775270674 20.79388022074958" fill="#97ff23" stroke="none" /><path d="M 115.41159269507618 85.73525988315684 l 14.547497911957883 -13.46494688577493 a40.82257526496391,40.82257526496391 0 0,0 0.4716024103255117,0.5183736615302236 l -14.776498023125272 13.213235648687034" fill="#ffe215" stroke="none" /><path d="M 117.01052211995028 87.68569379921539 l 24.669601657649025 -17.858889134707027 a51.45536351897373,51.45536351897373 0 0,0 0.5118213589888517,0.7199408385626418 l -24.972538115167836 17.43277106943488" fill="#99ff23" stroke="none" /><path d="M 117.81537515405839 88.88188828441811 l 23.26654411745552 -14.520044315455085 a48.42560413358808,48.42560413358808 0 0,0 0.4340595256448651,0.7090036143011275 l -23.51237160755579 14.118503585029403" fill="#bdff1f" stroke="none" /><line stroke="#e1ed5e" stroke-width="0.3" x1="172.87174338648825" x2="177.1583165268699" y1="56.24261187166439" y2="53.66864786411523" /><path d="M 173.72905801456457 55.72781907015455 a86.0,86.0 0 0,1 12.242430191666344,42.057860355516425" fill="none" id="id27" stroke="none" /><text fill="#e1ed5e" style="font-size:6.75px; font-family:Arial;" text-anchor="middle"><textPath startOffset="22.145653131862474" xlink:href="#id27">March</textPath></text><path d="M 118.00360718960297 89.18935116829356 l 26.487391994121616 -15.904917847883578 a51.89576583284809,51.89576583284809 0 0,0 0.45205237637034607,0.7676837631659729 l -26.75651808062173 15.44788291642405" fill="#94ff23" stroke="none" /><path d="M 118.18653347947321 89.5 l 25.89126094143488 -14.948326474196275 a50.89665294839254,50.89665294839254 0 0,0 0.4303593997962346,0.7604038231987106 l -26.14405370625249 14.501665880898447" fill="#9fff22" stroke="none" /><path d="M 118.8641267826498 90.77261029715802 l 16.313306069220264 -7.979655468647562 a39.16036498274128,39.16036498274128 0 0,0 0.2901983360559465,0.6064029098549987 l -16.447883663236123 7.69844005672746" fill="#ffcd13" stroke="none" /><path d="M 119.31412917781788 91.75594674310238 l 44.724101516135924 -19.090059477772247 a69.62793052650414,69.62793052650414 0 0,0 0.459790212496923,1.1033291292429444 l -45.04521757316933 18.319497839088026" fill="#3aff95" stroke="none" /><path d="M 119.4528033332814 92.08871423366111 l 20.423075438683462 -8.30588698475609 a43.047443592799965,43.047443592799965 0 0,0 0.2725135328832307,0.6869121218811283 l -20.562647646532817 7.954073845661395" fill="#ffff18" stroke="none" /><path d="M 119.58574465831526 92.42381321644754 l 20.485848610677586 -7.924366328761396 a42.96509902122019,42.96509902122019 0 0,0 0.26018296487492465,0.6901662259265008 l -20.618862259366953 7.571531822640738" fill="#fffe18" stroke="none" /><path d="M 119.71291397450082 92.76114493625339 l 22.59284039230958 -8.296403935503426 a45.06796117774441,45.06796117774441 0 0,0 0.2604495288093919,0.7285236860488644 l -22.731930091162916 7.907345293073645" fill="#e5ff1a" stroke="none" /><path d="M 120.16314734710363 94.1308016681162 l 29.919408632048132 -8.709103802655658 a52.16118582366383,52.16118582366383 0 0,0 0.24287616214360871,0.8618818171730396 l -30.064503286266323 8.194214061579606" fill="#91ff24" stroke="none" /><path d="M 120.26092885502905 94.47779374421319 l 29.178607686196113 -7.95275927637772 a51.242974830743,51.242974830743 0 0,0 0.2240306725866978,0.8506809542824287 l -29.31082783958754 7.450697817722492" fill="#9bff22" stroke="none" /><path d="M 120.35273937422433 94.82641323984039 l 29.969924410766904 -7.618237588739195 a51.92303208201875,51.92303208201875 0 0,0 0.2121735149396188,0.8657403453431375 l -30.096285452222816 7.102641418787963" fill="#94ff23" stroke="none" /><path d="M 120.51834098615036 95.52812308129327 l 18.518662827963134 -4.0360563713010995 a39.95338027814837,39.95338027814837 0 0,0 0.14029779628644082,0.6713757436046064 l -18.58521833507394 3.7175641764110887" fill="#ffd714" stroke="none" /><path d="M 120.592083275326 95.88100663000786 l 20.325777342019407 -4.065724724998176 a41.72841870709898,41.72841870709898 0 0,0 0.13447222910057105,0.7036155252095049 l -20.392575863402133 3.716206634755356" fill="#ffee16" stroke="none" /><path d="M 120.7213421655516 96.59031103205396 l 20.017998961842963 -3.2939541114292648 a41.287198331079324,41.287198331079324 0 0,0 0.10907391224760897,0.7003327609748062 l -20.071594366228837 2.9498331685230172" fill="#ffe815" stroke="none" /><path d="M 120.77682067341334 96.94652285012252 l 23.547921369410272 -3.4607335240956925 a44.8008671553103,44.8008671553103 0 0,0 0.10529373605695427,0.7618530220921942 l -23.603859622022437 3.0559921938034127" fill="#e9ff1a" stroke="none" /><path d="M 120.82617615685814 97.30363454192243 l 22.440645973305465 -2.905390898628447 a43.627944846429685,43.627944846429685 0 0,0 0.08978613128767379,0.743557967779704 l -22.4872141908528 2.51973925392533" fill="#f8ff18" stroke="none" /><path d="M 120.9064616781168 98.02013634271609 l 19.654989361932106 -1.8613479277903628 a40.74292842832475,40.74292842832475 0 0,0 0.05996268182879749,0.696857255225431 l -19.684045666458644 1.52366962518927" fill="#ffe115" stroke="none" /><path d="M 120.93736805541906 98.37931529534042 l 20.778851209511735 -1.6084144982557502 a41.84100896754345,41.84100896754345 0 0,0 0.049284801081617764,0.716590191199737 l -20.80339997175842 1.2514808829016792" fill="#fff016" stroke="none" /><path d="M 120.96210409425399 98.7389718711861 l 21.56018569394339 -1.2970072326835977 a42.599162829122676,42.599162829122676 0 0,0 0.03764632155186513,0.730328580810556 l -21.579273604951826 0.9267068584963112" fill="#fff917" stroke="none" /><path d="M 120.98066250479742 99.09900007780936 l 26.22992649923289 -1.1264259043045541 a47.254102145627606,47.254102145627606 0 0,0 0.027846871654050087,0.8107312846055621 l -26.245398057883786 0.6759883551348721" fill="#cbff1d" stroke="none" /><line stroke="#e1ed5e" stroke-width="0.3" x1="184.99686870605535" x2="189.99668451229388" y1="99.2704041080226" y2="99.22748670261217" /><path d="M 185.99683186730306 99.26182062694052 a86.0,86.0 0 0,1 -10.086455211305974,41.156179273409016" fill="none" id="id28" stroke="none" /><text fill="#e1ed5e" style="font-size:6.75px; font-family:Arial;" text-anchor="middle"><textPath startOffset="21.40746469413373" xlink:href="#id28">April</textPath></text><path d="M 120.99922638620191 100.18025310272382 l 14.30235340519778 0.12276850252129018 a35.30288030546239,35.30288030546239 0 0,0 -0.010403537596875125,0.6059539086323172 l -14.298138436002237 -0.36826932712267846" fill="#ff980e" stroke="none" /><path d="M 120.99303781780057 100.54070618675476 l 16.352127395444228 0.4211727967174664 a37.35755045480626,37.35755045480626 0 0,0 -0.02201482761473109,0.6409376857188978 l -16.34248788083265 -0.7018167470004748" fill="#ffb410" stroke="none" /><path d="M 120.98066250479742 100.90099992219065 l 17.038312179281153 0.731698436323541 a38.05401608186057,38.05401608186057 0 0,0 -0.03362962158444544,0.6524056745126339 l -17.023240968240135 -1.0240759042129055" fill="#ffbe11" stroke="none" /><path d="M 120.96210409425399 101.26102812881392 l 16.68113189739635 1.0034954720427083 a37.71128853621839,37.71128853621839 0 0,0 -0.04442037608320459,0.645862519317327 l -16.66144756014808 -1.289701415514379" fill="#ffb911" stroke="none" /><path d="M 120.93736805541906 101.62068470465957 l 15.868886886138851 1.2283522068420414 a36.91635699992694,36.91635699992694 0 0,0 -0.05433099324117331,0.6314084972352418 l -15.845462270199937 -1.5005817514529405" fill="#ffae10" stroke="none" /><path d="M 120.9064616781168 101.97986365728391 l 17.22110847037934 1.6308568768638916 a38.298158026257745,38.298158026257745 0 0,0 -0.06760100430440251,0.6539783939576038 l -17.19057507359327 -1.9262397931044268" fill="#ffc111" stroke="none" /><path d="M 120.7213421655516 103.40968896794604 l 17.046942902457097 2.805067967476742 a38.27618790768949,38.27618790768949 0 0,0 -0.11224981038079004,0.6474270770500975 l -16.996278274584075 -3.0972880774474274" fill="#ffc111" stroke="none" /><path d="M 120.26092885502905 105.52220625578681 l 17.392723121007677 4.740464028634913 a39.02716885067693,39.02716885067693 0 0,0 -0.18172073429900867,0.6448627782706774 l -17.30878389463409 -5.038334730808599" fill="#ffcb12" stroke="none" /><path d="M 119.71291397450082 107.23885506374661 l 19.045502654838998 6.993772382556742 a41.28901238391097,41.28901238391097 0 0,0 -0.25003311765900244,0.6632425503118742 l -18.922638853365555 -7.319683213062775" fill="#ffe915" stroke="none" /><line stroke="#e1ed5e" stroke-width="0.3" x1="174.33088141563837" x2="178.70328620479359" y1="141.23008692659167" y2="143.65538615756765" /><path d="M 175.20536237346943 141.71514677278685 a86.0,86.0 0 0,1 -30.301960400862466,31.631185727798858" fill="none" id="id29" stroke="none" /><text fill="#e1ed5e" style="font-size:6.75px; font-family:Arial;" text-anchor="middle"><textPath startOffset="22.145653131862474" xlink:href="#id29">May</textPath></text><path d="M 110.96478420261333 117.91015095944535 l 2.014601337018907 3.2906998808521366 a24.85840954966663,24.85840954966663 0 0,0 -0.36585333885151233,0.2196844181601061 l -1.957815241609958 -3.324798299548166" fill="#ff0000" stroke="none" /><line stroke="#e1ed5e" stroke-width="0.3" x1="143.1302829299769" x2="145.66735839644613" y1="173.24464959558577" y2="177.55315839532614" /><path d="M 143.63769802327073 174.10635135553383 a86.0,86.0 0 0,1 -40.68552437913181,11.842963189579606" fill="none" id="id30" stroke="none" /><text fill="#e1ed5e" style="font-size:6.75px; font-family:Arial;" text-anchor="middle"><textPath startOffset="21.407464694133747" xlink:href="#id30">June</textPath></text><path d="M 109.06512990194946 118.94263497670748 l 8.546715265923417 17.859347773651276 a40.79905666280571,40.79905666280571 0 0,0 -0.6343501173239041,0.29690788512272853 l -8.238876434728006 -18.00343189034454" fill="#ffe215" stroke="none" /><path d="M 108.07796709384702 119.3841803445677 l 6.500488501161117 15.59880598303931 a37.899085740069815,37.899085740069815 0 0,0 -0.6026776479932044,0.24510375273788293 l -6.231756391977472 -15.708096992356486" fill="#ffbc11" stroke="none" /><path d="M 107.06938296918513 119.77432235084164 l 6.08630066013494 17.024466166602576 a39.07969866959499,39.07969866959499 0 0,0 -0.6336386584389017,0.22041241738923814 l -5.793156229651016 -17.126437016560406" fill="#ffcb13" stroke="none" /><path d="M 106.0420521117495 120.11202640906438 l 3.6179194019635754 12.042877024622156 a33.574586586813766,33.574586586813766 0 0,0 -0.5534050945453518,0.16108815760988465 l -3.410654295036617 -12.10320887653456" fill="#ff800b" stroke="none" /><path d="M 105.69591212413111 120.21278271476187 l 5.651515868905186 20.055236067153153 a41.83631746076374,41.83631746076374 0 0,0 -0.6929261585359141,0.188860105814724 l -5.306408309434577 -20.14929666711202" fill="#fff016" stroke="none" /><path d="M 104.64783097203109 120.47920084513623 l 3.4077979825159646 15.01538669189104 a36.39723756381834,36.39723756381834 0 0,0 -0.6104988095818372,0.13305537408261772 l -3.1495367563149914 -15.071673524107377" fill="#ffa70f" stroke="none" /><path d="M 101.08105385017728 120.97215588758144 l 0.9742078000489035 18.89937105924267 a39.924463196418955,39.924463196418955 0 0,0 -0.6847506269138272,0.029406138220287707 l -0.6496314125342467 -18.91330976588879" fill="#ffd714" stroke="none" /><line stroke="#e1ed5e" stroke-width="0.3" x1="101.45913802915013" x2="101.54496967792366" y1="184.9874750549273" y2="189.98673829345242" /><path d="M 101.47630435890484 185.9873277026323 a86.0,86.0 0 0,1 -42.54439059252881,-10.42667462771756" fill="none" id="id31" stroke="none" /><text fill="#e1ed5e" style="font-size:6.75px; font-family:Arial;" text-anchor="middle"><textPath startOffset="22.145653131862474" xlink:href="#id31">July</textPath></text><line stroke="#e1ed5e" stroke-width="0.3" x1="58.13341422392154" x2="55.67067388415222" y1="173.97424548756322" y2="178.32567169271397" /><path d="M 57.64086615596768 174.84453072859336 a86.0,86.0 0 0,1 -31.369924170532247,-30.572349798747897" fill="none" id="id32" stroke="none" /><text fill="#e1ed5e" style="font-size:6.75px; font-family:Arial;" text-anchor="middle"><textPath startOffset="22.145653131862474" xlink:href="#id32">August</textPath></text><line stroke="#e1ed5e" stroke-width="0.3" x1="26.387840678322732" x2="22.057713659400548" y1="142.50000000000003" y2="145.00000000000006" /><path d="M 25.521815274538298 143.00000000000003 a86.0,86.0 0 0,1 -11.493303480769221,-40.785679425670985" fill="none" id="id33" stroke="none" /><text fill="#e1ed5e" style="font-size:6.75px; font-family:Arial;" text-anchor="middle"><textPath startOffset="21.40746469413373" xlink:href="#id33">September</textPath></text><line stroke="#e1ed5e" stroke-width="0.3" x1="15.003131293944662" x2="10.003315487706104" y1="100.72959589197737" y2="100.7725132973878" /><path d="M 14.003168132696942 100.73817937305945 a86.0,86.0 0 0,1 10.791469493833604,-42.45332614584628" fill="none" id="id34" stroke="none" /><text fill="#e1ed5e" style="font-size:6.75px; font-family:Arial;" text-anchor="middle"><textPath startOffset="22.145653131862435" xlink:href="#id34">October</textPath></text><line stroke="#e1ed5e" stroke-width="0.3" x1="26.387840678322718" x2="22.05771365940052" y1="57.49999999999999" y2="54.99999999999999" /><path d="M 25.521815274538284 56.99999999999999 a86.0,86.0 0 0,1 29.574782752854787,-30.34633250058573" fill="none" id="id35" stroke="none" /><text fill="#e1ed5e" style="font-size:6.75px; font-family:Arial;" text-anchor="middle"><textPath startOffset="21.40746469413373" xlink:href="#id35">November</textPath></text><line stroke="#e1ed5e" stroke-width="0.3" x1="56.869717070023135" x2="54.33264160355391" y1="26.7553504044142" y2="22.446841604673864" /><path d="M 56.362301976729285 25.89364864446614 a86.0,86.0 0 0,1 42.16139366436587,-11.88097634709845" fill="none" id="id36" stroke="none" /><text fill="#e1ed5e" style="font-size:6.75px; font-family:Arial;" text-anchor="middle"><textPath startOffset="22.145653131862474" xlink:href="#id36">December</textPath></text></svg>