<?xml version="1.0" encoding="utf-8" ?>
<svg baseProfile="full" height="200mm" version="1.1" viewBox="0,0,200,200" width="200mm" xmlns="http://www.w3.org/2000/svg" xmlns:ev="http://www.w3.org/2001/xml-events" xmlns:xlink="http://www.w3.org/1999/xlink"><defs /><rect fill="#1a1a1a" height="200" width="200" x="0" y="0" /><text alignment-baseline="middle" fill="#e1ed5e" style="dominant-baseline: central; font-size:9.0px; font-family:Arial;" text-anchor="middle" x="100.0" y="100.0">2023</text><line stroke="#e1ed5e" stroke-width="0.3" x1="100.0" x2="100.0" y1="15.0" y2="10.0" /><path d="M 100.0 14.0 a86.0,86.0 0 0,1 42.46469731375804,11.215312516191453" fill="none" id="id13" stroke="none" /><text fill="#e1ed5e" style="font-size:6.75px; font-family:Arial;" text-anchor="middle"><textPath startOffset="22.20632615414155" xlink:href="#id13">January</textPath></text><path d="M 100.0 79.0 l 0.0 -19.685772724389842 a40.68577272438984,40.68577272438984 0 0,0 0.7003386963802668,0.0060280362645623335 l -0.33885821710773845 19.68285606473384" fill="#ffde14" stroke="none" /><path d="M 100.36148047927253 79.00311137660856 l 0.49549503389959554 -28.781233391000544 a49.78549827319068,49.78549827319068 0 0,0 0.8567215728325246,0.022126590651423035 l -0.9908432419269879 28.76844000820676" fill="#aeff20" stroke="none" /><path d="M 101.08401301168833 79.027996857942 l 2.156887483007799 -41.72851301872628 a62.78421905897446,62.78421905897446 0 0,0 1.0788061414497778,0.06507653254403216 l -2.874855673297189 41.685203216801945" fill="#31ff42" stroke="none" /><path d="M 101.44485096284872 79.0497635885617 l 1.4345829973778979 -20.801351640891436 a41.850761579961116,41.850761579961116 0 0,0 0.7182583360035997,0.055750670591071166 l -1.7924315227438388 20.7735757081119" fill="#ffee16" stroke="none" /><path d="M 101.80526077348638 79.07773832637324 l 2.5186768091686034 -29.190472671132085 a50.29893219271229,50.29893219271229 0 0,0 0.8619677062070839,0.08185421995971028 l -3.0207696424659316 29.142792906657196" fill="#a8ff21" stroke="none" /><path d="M 102.16513564639614 79.11191278185805 l 4.550464277248008 -43.90048026062809 a65.13568728650668,65.13568728650668 0 0,0 1.114233698242451,0.1251971386836643 l -5.305464679000185 43.81564716847383" fill="#34ff5f" stroke="none" /><path d="M 102.52436894288641 79.15227682838746 l 5.152437724404618 -42.55186059076562 a63.86266970499878,63.86266970499878 0 0,0 1.0901822136862018,0.14153693977550147 l -5.884134666598666 42.45686532782598" fill="#33ff4f" stroke="none" /><path d="M 103.59715602781102 79.31037775812273 l 3.3928949926454366 -19.514782000409454 a40.80753525693248,40.80753525693248 0 0,0 0.6910170777681228,0.12627895409212017 l -3.72830719151646 19.453487564966597" fill="#ffe015" stroke="none" /><path d="M 106.74666289553966 80.11325718540242 l 14.003150014555729 -41.276264613399405 a64.58690434942037,64.58690434942037 0 0,0 1.0497463217286283,0.3662358793417724 l -14.71157834034763 41.02910788088543" fill="#34ff58" stroke="none" /><path d="M 107.08798089147638 80.2323363322302 l 11.52274773663287 -32.13578101772641 a55.139158411146326,55.139158411146326 0 0,0 0.8906750988136446,0.32804315560942987 l -12.07420516121909 31.932674594310654" fill="#71ff27" stroke="none" /><path d="M 107.76421540070413 80.48803036053334 l 10.266379605299576 -25.800068239693392 a48.76764432523844,48.76764432523844 0 0,0 0.7773008189444593,0.3170805209086883 l -10.708964293832423 25.619526832601125" fill="#baff1f" stroke="none" /><path d="M 108.09893153111575 80.62456947434976 l 13.723117620786425 -32.8304185601929 a56.58314685453491,56.58314685453491 0 0,0 0.8954047016713231,0.3833655639911407 l -14.286206080248064 32.589333468238976" fill="#61ff29" stroke="none" /><path d="M 108.43124777332544 80.76684994638697 l 15.111283556891411 -34.471479425844834 a58.63819581944943,58.63819581944943 0 0,0 0.9209488343857578,0.41320289697471646 l -15.70241450974395 34.206256198353586" fill="#4bff2c" stroke="none" /><path d="M 108.76106565485865 80.91482961587045 l 9.086757151852874 -19.794659156120417 a42.780672318450854,42.780672318450854 0 0,0 0.6666080056118697,0.31298139687226395 l -9.426143368764341 19.635312776608153" fill="#fffa17" stroke="none" /><path d="M 109.08828744355905 81.06846463323043 l 27.264862330677165 -56.79460610030869 a84.0,84.0 0 0,0 1.2981149319582728,0.6369793594606721 l -28.23844852964587 56.31687158071319" fill="#4dd2ff" stroke="none" /><path d="M 109.41281617654863 81.2277094730956 l 9.336845514525905 -18.620779723733197 a41.83050939564167,41.83050939564167 0 0,0 0.6408822712794157,0.328284791351782 l -9.655988273394076 18.457302407068916" fill="#ffed16" stroke="none" /><path d="M 109.73455568895987 81.39251694778311 l 18.35154647111798 -35.07875457845218 a60.58911821014561,60.58911821014561 0 0,0 0.9199590698946015,0.4914102749375124 l -18.952650587540894 34.75766557701291" fill="#37ff2e" stroke="none" /><path d="M 110.36928655335952 81.73862282372117 l 20.26984194562102 -35.69727070109923 a62.05072018866435,62.05072018866435 0 0,0 0.9242699060901823,0.5353967871018716 l -20.881308584176534 35.343069756607306" fill="#30ff39" stroke="none" /><line stroke="#e1ed5e" stroke-width="0.3" x1="143.23703022742887" x2="145.7803849466894" y1="26.81831364943548" y2="22.513508569990506" /><path d="M 143.74570117128098 25.957352633546492 a86.0,86.0 0 0,1 28.547481713284135,27.462654790039103" fill="none" id="id14" stroke="none" /><text fill="#e1ed5e" style="font-size:6.75px; font-family:Arial;" text-anchor="middle"><textPath startOffset="19.985693538727396" xlink:href="#id14">February</textPath></text><path d="M 110.68208982089419 81.91981866633111 l 13.66212123712943 -23.124092149713015 a47.85846597344015,47.85846597344015 0 0,0 0.7056569770480718,0.42515043302165645 l -14.05814028039514 22.885495107232746" fill="#c5ff1e" stroke="none" /><path d="M 111.90073688211348 82.69761687909136 l 24.028122806759555 -34.93428941393113 a63.39994413289975,63.39994413289975 0 0,0 0.8938452004708487,0.626195684813481 l -24.625899146814056 34.515508886353715" fill="#32ff4a" stroke="none" /><path d="M 112.48926042617603 83.11751280151076 l 16.873227309393055 -22.808559860837708 a49.37139761731636,49.37139761731636 0 0,0 0.678865759824967,0.5113076159369926 l -17.263339222976406 22.514735655394865" fill="#b3ff20" stroke="none" /><path d="M 112.77801427241765 83.33499621200491 l 24.06730301643812 -31.38842134505465 a60.55335724081755,60.55335724081755 0 0,0 0.8217016899730469,0.6413512026401993 l -24.604037261570596 30.969491753191228" fill="#37ff2e" stroke="none" /><path d="M 113.06298171725822 83.55741782278167 l 14.269859607533997 -17.96169851055209 a43.94017233158242,43.94017233158242 0 0,0 0.5881634813761141,0.4755872979110512 l -14.576926487474601 17.713405115376908" fill="#f6ff19" stroke="none" /><path d="M 113.6212207817346 84.01681056812373 l 22.17872641546536 -26.02459730566077 a55.193209418448376,55.193209418448376 0 0,0 0.7177908459412417,0.6224611483717944 l -22.623411060053368 25.638971163869304" fill="#70ff27" stroke="none" /><path d="M 113.89432698308785 84.25364557470407 l 18.82152947605066 -21.330322391058598 a49.447014344643264,49.447014344643264 0 0,0 0.6333668359472622,0.5686429989347674 l -19.185907299593914 21.003180383354533" fill="#b2ff20" stroke="none" /><path d="M 114.16331599549186 84.49514656593476 l 14.562253713349513 -15.94157819870879 a42.591506401303015,42.591506401303015 0 0,0 0.5370426243983978,0.49912259035872686 l -14.834504221542756 15.688551022275423" fill="#fff717" stroke="none" /><path d="M 114.94478906791727 85.2469230424477 l 14.697293865206372 -14.508756629200708 a41.6522266568428,41.6522266568428 0 0,0 0.49930256885072904,0.5145751871355707 l -14.94486069776021 14.253617246515022" fill="#ffeb16" stroke="none" /><path d="M 115.19652480421416 85.50635884689758 l 19.212020497849114 -18.323408444321117 a47.548992987064366,47.548992987064366 0 0,0 0.5597935654190286,0.5971487451114176 l -19.524581385238605 17.989990282331643" fill="#c9ff1d" stroke="none" /><path d="M 115.68641384162765 86.03803664274999 l 31.027815619439398 -27.61684277285214 a62.53811920217817,62.53811920217817 0 0,0 0.7087895812693721,0.8102690180589713 l -31.498597064286617 27.078658198590222" fill="#31ff3f" stroke="none" /><path d="M 116.15771136456269 86.58626213691792 l 15.802260440348306 -13.118651175801647 a41.53802433772438,41.53802433772438 0 0,0 0.4519762474922309,0.5540694371524086 l -16.025735179916946 12.844697569041138" fill="#ffe915" stroke="none" /><path d="M 116.38621287248628 86.86637796730983 l 23.723694549490165 -19.014646023252837 a51.40346109355174,51.40346109355174 0 0,0 0.5474368722342751,0.6951892346527506 l -24.047485502318406 18.603464394647048" fill="#9bff22" stroke="none" /><path d="M 117.04232023915458 87.72973835380427 l 13.78429824222318 -9.924525749298136 a37.985378694013235,37.985378694013235 0 0,0 0.37747948406719173,0.5339179602540013 l -13.953090346094253 9.685781288712342" fill="#ffba11" stroke="none" /><path d="M 117.2510076193507 88.02491185347247 l 36.73257673521241 -25.498559502103525 a65.7153075611762,65.7153075611762 0 0,0 0.6370489928814272,0.93479078933656 l -37.166050193762565 24.862490689496557" fill="#35ff66" stroke="none" /><path d="M 117.65298651832404 88.62581576622439 l 20.8973140961971 -13.46457157685452 a45.8594534168263,45.8594534168263 0 0,0 0.4218467072083313,0.6672601840977171 l -21.125988399651387 13.102863745042598" fill="#deff1b" stroke="none" /><line stroke="#e1ed5e" stroke-width="0.3" x1="172.23445277983987" x2="176.4835382374775" y1="55.19839476539836" y2="52.563006222186495" /><path d="M 173.08426987136738 54.67131705675599 a86.0,86.0 0 0,1 12.851231095245387,41.99856678651699" fill="none" id="id15" stroke="none" /><text fill="#e1ed5e" style="font-size:6.75px; font-family:Arial;" text-anchor="middle"><textPath startOffset="22.20632615414155" xlink:href="#id15">March</textPath></text><path d="M 117.84615892207809 88.93136811851018 l 36.75424509292193 -22.795897469696776 a64.24959507093105,64.24959507093105 0 0,0 0.5748325657302497,0.9448735960142362 l -37.1411934569384 22.15985610047546" fill="#33ff54" stroke="none" /><path d="M 118.03404312379186 89.2402003453031 l 36.82604673203818 -21.971827514845277 a63.882617950078235,63.882617950078235 0 0,0 0.555293041728333,0.9491758091978575 l -37.19879944823684 21.334672293293526" fill="#33ff50" stroke="none" /><path d="M 118.21658344932153 89.55222093294921 l 27.196677667851446 -15.598143330333931 a52.35221445963029,52.35221445963029 0 0,0 0.4416092739496812,0.785573622269506 l -27.46114458309356 15.12768619812963" fill="#90ff24" stroke="none" /><path d="M 118.56541770881063 90.18545643968196 l 37.7868953041911 -19.975910899982633 a63.742092520300695,63.742092520300695 0 0,0 0.5044444994051943,0.9744262113914937 l -38.125149236756414 19.322511966330797" fill="#33ff4e" stroke="none" /><path d="M 118.73160827565052 90.50648371742162 l 22.192427331632523 -11.247521682196524 a45.87992312812222,45.87992312812222 0 0,0 0.35095953604762786,0.7075130088308403 l -22.382746880633558 10.863849084866734" fill="#ddff1b" stroke="none" /><path d="M 118.89224826269711 90.83032412892265 l 26.51144295590257 -12.867782351780154 a50.46924549860177,50.46924549860177 0 0,0 0.37261157035938264,0.7848149949746632 l -26.72901272010371 12.40952494116495" fill="#a6ff21" stroke="none" /><path d="M 119.04729006885535 91.15688171328212 l 36.375669477031124 -16.888194949575336 a61.10486826505076,61.10486826505076 0 0,0 0.43471074957421385,0.9578275135933237 l -36.660982543568686 16.259545427139948" fill="#31ff2f" stroke="none" /><path d="M 119.196687751892 91.48605970444005 l 28.95153926366163 -12.840323286035668 a52.67120976257855,52.67120976257855 0 0,0 0.3604448650813061,0.831956444471704 l -29.168274838585617 12.34006769697736" fill="#8dff24" stroke="none" /><path d="M 119.34039704204932 91.81776055985345 l 36.540061557117276 -15.45881049742645 a60.67557082882692,60.67557082882692 0 0,0 0.3986625195323137,0.9653929126748965 l -36.80074576353579 14.82754301429825" fill="#36ff2f" stroke="none" /><path d="M 120.08093135843002 93.85539295169968 l 38.558381570350306 -11.798561478014584 a61.32313036304622,61.32313036304622 0 0,0 0.3001741034272127,1.0120378522163533 l -38.75576157088922 11.133094239051701" fill="#2fff2f" stroke="none" /><path d="M 120.28053869075195 94.5502522615342 l 38.2557015870063 -10.279999283366172 a60.61283995348081,60.61283995348081 0 0,0 0.2620889620730633,1.0099356836837328 l -38.42698688094966 9.619967174133588" fill="#37ff2e" stroke="none" /><path d="M 120.37134235888165 94.90015583598534 l 17.33340167311718 -4.339313816825042 a38.86830876055454,38.86830876055454 0 0,0 0.15689322343952708,0.6504237008990928 l -17.405527696817526 4.040304884266543" fill="#ffc612" stroke="none" /><path d="M 120.45610955862082 95.25157060432595 l 16.891082028687986 -3.92088780126632 a38.34018492548408,38.34018492548408 0 0,0 0.1436946550959744,0.6441549631048655 l -16.956071070786 3.6295546686114903" fill="#ffbf11" stroke="none" /><path d="M 120.78858239683441 97.02765380044208 l 44.56832544177863 -6.372367784332577 a66.02158042387109,66.02158042387109 0 0,0 0.15117055882402672,1.1263962520845539 l -44.6714119996605 5.60425319018336" fill="#35ff6a" stroke="none" /><path d="M 120.91429891909075 98.10471618934814 l 23.10870949756144 -2.0941444494611465 a44.20340267326961,44.20340267326961 0 0,0 0.06214896575538147,0.7583747997733309 l -23.141332947136316 1.696055732480047" fill="#f2ff19" stroke="none" /><path d="M 120.96714384426684 98.82574320788733 l 15.629503751680652 -0.8753243204739021 a36.6539956621245,36.6539956621245 0 0,0 0.029857981409715358,0.6302547967372335 l -15.642255341323864 0.6061584171136689" fill="#ffa80f" stroke="none" /><path d="M 120.98425023603335 99.18683210126433 l 21.55206744521675 -0.8351715787177505 a42.56824338533552,42.56824338533552 0 0,0 0.022071240022190436,0.7324370050857163 l -21.563250379694583 0.4640644262070352" fill="#fff717" stroke="none" /><line stroke="#e1ed5e" stroke-width="0.3" x1="184.98032266829074" x2="189.97916517819016" y1="98.17113171792111" y2="98.06355123074" /><path d="M 185.9800911702706 98.14961562048488 a86.0,86.0 0 0,1 -9.607161424134198,41.387399972396054" fill="none" id="id16" stroke="none" /><text fill="#e1ed5e" style="font-size:6.75px; font-family:Arial;" text-anchor="middle"><textPath startOffset="21.466115282336823" xlink:href="#id16">April</textPath></text><path d="M 120.99513854157772 99.54816195383933 l 25.60030590643989 -0.5509462192389972 a46.606233698843624,46.606233698843624 0 0,0 0.010357664806789943,0.8022125538329798 l -25.605996578364397 0.11019740734555458" fill="#d4ff1c" stroke="none" /><path d="M 120.99980553446 99.90962569577887 l 39.73906394672045 -0.17102016724347763 a60.739431944343906,60.739431944343906 0 0,0 -0.004499642805231575,1.0455585212939362 l -39.73612000662571 -0.5130478322541433" fill="#35ff2f" stroke="none" /><path d="M 120.99824983174949 100.27111621757518 l 26.82991913155337 0.3464110700214868 a47.83215535947731,47.83215535947731 0 0,0 -0.017715976477476154,0.8231918133154543 l -26.819981092390886 -0.808192699127056" fill="#c5ff1e" stroke="none" /><path d="M 120.9764740272857 100.99374915477107 l 23.012468151660595 1.0902032794053846 a44.03827757497551,44.03827757497551 0 0,0 -0.04238925192467343,0.7568885686038156 l -22.990292548848394 -1.4861635643446234" fill="#f4ff19" stroke="none" /><path d="M 120.95626037817324 101.35467743843564 l 43.24804830095658 2.7956875049472827 a64.33831503954892,64.33831503954892 0 0,0 -0.08095427109918485,1.1045567106805354 l -43.19351747119306 -3.5397173521245886" fill="#33ff55" stroke="none" /><path d="M 120.92983693683757 101.71520430193887 l 19.567633273048813 1.6035714406175725 a40.63322982276964,40.63322982276964 0 0,0 -0.06312740607305915,0.6966056656943019 l -19.53713127069868 -1.940158494860445" fill="#ffde14" stroke="none" /><path d="M 120.8583938346157 102.4346265915055 l 28.268781212656915 3.2995793921375007 a49.46069597557451,49.46069597557451 0 0,0 -0.10598365097625456,0.8447939765251178 l -28.207796052433814 -3.7856911229500136" fill="#b2ff20" stroke="none" /><path d="M 120.49622156327973 104.57218783832717 l 33.939725554177926 7.571093039557429 a55.773933060649796,55.773933060649796 0 0,0 -0.21709189162879733,0.9352261873141846 l -33.804373096618576 -8.154187884220178" fill="#6aff28" stroke="none" /><path d="M 120.02730092923936 106.31721596034902 l 36.85679426984225 11.625746765946795 a59.64687919761955,59.64687919761955 0 0,0 -0.3172866004319964,0.9765077467158649 l -36.651215418394 -12.258453412640455" fill="#40ff2d" stroke="none" /><path d="M 119.9155931802556 106.66101706037122 l 21.393040474439818 7.155167625874694 a43.55789450492633,43.55789450492633 0 0,0 -0.24394322755175235,0.709013206559066 l -21.266706415944835 -7.52235353552306" fill="#fbff18" stroke="none" /><path d="M 119.79798401119884 107.00284435728193 l 37.16084119067468 13.144347772821945 a60.41702673174923,60.41702673174923 0 0,0 -0.35523985826522414,0.9774675204976794 l -36.92907707140424 -13.782063090325755" fill="#39ff2e" stroke="none" /><path d="M 119.26925614724726 108.34839909993367 l 37.455025893802386 16.227378061217053 a61.81919601666691,61.81919601666691 0 0,0 -0.43143591957083416,0.9727741028758188 l -37.170148889500275 -16.86970050058556" fill="#30ff36" stroke="none" /><path d="M 118.81262510543309 109.33194174019688 l 29.63749958316142 14.701585657777054 a54.08350045558736,54.08350045558736 0 0,0 -0.42087607557461953,0.83042842563236 l -29.380044837800533 -15.209568295112108" fill="#7dff26" stroke="none" /><line stroke="#e1ed5e" stroke-width="0.3" x1="174.80103733775053" x2="179.2010983576182" y1="140.37084112569926" y2="142.7455964860345" /><path d="M 175.68104954172406 140.8457921977663 a86.0,86.0 0 0,1 -30.038265399797805,32.042727171017184" fill="none" id="id17" stroke="none" /><text fill="#e1ed5e" style="font-size:6.75px; font-family:Arial;" text-anchor="middle"><textPath startOffset="22.206326154141568" xlink:href="#id17">May</textPath></text><path d="M 118.48025628344425 109.97397251340804 l 32.3538648889479 17.46169285509182 a57.76524568961645,57.76524568961645 0 0,0 -0.47979150295707673,0.870960942729842 l -32.04849697653932 -18.016024316219468" fill="#54ff2b" stroke="none" /><path d="M 118.30583269289576 110.29060199501025 l 29.817311516601485 16.76176607348 a55.205684731929,55.205684731929 0 0,0 -0.472792009527547,0.8243527203683597 l -29.524367510921557 -17.272538639706674" fill="#70ff27" stroke="none" /><path d="M 117.75023020441432 111.22182372390056 l 19.04080515822962 12.037734529980948 a43.526857607930125,43.526857607930125 0 0,0 -0.4058260491482074,0.6298510404925971 l -18.830774245704365 -12.363707170394997" fill="#fbff18" stroke="none" /><path d="M 116.498646956653 112.99209946851258 l 23.29666753528333 18.345299629629164 a50.6527357380461,50.6527357380461 0 0,0 -0.5453179169424371,0.6803679478485261 l -22.977431706286037 -18.743595411055942" fill="#a4ff21" stroke="none" /><path d="M 116.0416608686014 113.55231037782055 l 32.79526729972784 27.706086359139594 a63.93200180052986,63.93200180052986 0 0,0 -0.7174311953537772,0.8345345614272219 l -32.31349359480328 -28.266498019728342" fill="#33ff50" stroke="none" /><path d="M 115.80600337817218 113.82643327865902 l 18.148401854463604 15.875465881625685 a45.112131942857296,45.112131942857296 0 0,0 -0.5163000802839174,0.5800686134585533 l -17.87244292453135 -16.185508664825104" fill="#e7ff1a" stroke="none" /><path d="M 115.56566222782051 114.09645910891815 l 25.06442182957984 22.69865504198463 a54.814999369601246,54.814999369601246 0 0,0 -0.6393871900617172,0.6939285143082912 l -24.6699882315224 -23.126734811094256" fill="#74ff27" stroke="none" /><path d="M 115.32070863581623 114.36230785411682 l 23.24633904527704 21.79214328695818 a52.86361228811461,52.86361228811461 0 0,0 -0.6280535683965268,0.6585116555386814 l -22.86777892550155 -22.18906205907937" fill="#8aff24" stroke="none" /><path d="M 114.81725581225074 114.88116024355365 l 28.009119517962517 28.129918326916794 a60.696386249261,60.696386249261 0 0,0 -0.7467102037197033,0.730813096004641 l -27.520759361867018 -28.607881525844007" fill="#36ff2f" stroke="none" /><path d="M 112.34349029814194 116.9893568818739 l 2.4106928721801943 3.3180340850775445 a25.101315680817166,25.101315680817166 0 0,0 -0.3517443447572744,0.2509602505927258 l -2.3532211995740355 -3.3590385975144894" fill="#ff0000" stroke="none" /><line stroke="#e1ed5e" stroke-width="0.3" x1="143.8653032363475" x2="146.44561519142675" y1="172.8068346515853" y2="177.08958963109032" /><path d="M 144.38136562736335 173.6633856474863 a86.0,86.0 0 0,1 -40.68145358897372,12.25698825130547" fill="none" id="id18" stroke="none" /><text fill="#e1ed5e" style="font-size:6.75px; font-family:Arial;" text-anchor="middle"><textPath startOffset="21.466115282336833" xlink:href="#id18">June</textPath></text><line stroke="#e1ed5e" stroke-width="0.3" x1="102.19456741930631" x2="102.32365962044197" y1="184.97166512339345" y2="189.96999836594603" /><path d="M 102.22038585953345 185.97133177190398 a86.0,86.0 0 0,1 -42.740103519485714,-10.115201625700543" fill="none" id="id19" stroke="none" /><text fill="#e1ed5e" style="font-size:6.75px; font-family:Arial;" text-anchor="middle"><textPath startOffset="22.20632615414155" xlink:href="#id19">July</textPath></text><path d="M 99.81925306533755 120.99922214144158 l -0.13545154763245804 15.736793232195192 a36.737376158515765,36.737376158515765 0 0,0 -0.6323032681554117,-0.010885674183353455 l 0.4063145056805376 -15.732130080732679" fill="#ffa90f" stroke="none" /><path d="M 99.09653310690486 120.98055641714683 l -0.638681499916076 14.831637267494374 a35.84538238284427,35.84538238284427 0 0,0 -0.6162195586898908,-0.03185151247364943 l 0.8938891270194558 -14.818445948258523" fill="#ff9d0e" stroke="none" /><path d="M 98.73552117531835 120.96189622390904 l -0.7651749236484963 12.684686393776097 a33.7077441574903,33.7077441574903 0 0,0 -0.5788698949203549,-0.03992225713420479 l 0.9834075793477812 -12.669635792125607" fill="#ff7f0b" stroke="none" /><path d="M 98.37488393609728 120.93702456842531 l -1.6068884949756295 20.702191459008727 a41.76446054779028,41.76446054779028 0 0,0 -0.7162717991783749,-0.061802944747659315 l 1.963004611895546 -20.671464261982404" fill="#ffec16" stroke="none" /><path d="M 98.01472825383883 120.90594882070398 l -2.034460934392173 21.423936674849216 a42.5203181654342,42.5203181654342 0 0,0 -0.7280438282975807,-0.07546471959465341 l 2.4029373592953474 -21.385742586798802" fill="#fff617" stroke="none" /><path d="M 97.65516085044442 120.86867818915974 l -2.318356865699814 20.63299027018041 a41.76282895094252,41.76282895094252 0 0,0 -0.7136920974423231,-0.08641817385699581 l 2.6731763861935267 -20.590026567598066" fill="#ffec16" stroke="none" /><path d="M 96.93821686468263 120.77559828337769 l -3.5344804180447316 23.983065442729625 a45.242111703723204,45.242111703723204 0 0,0 -0.7694695121517761,-0.12017531285833317 l 3.946785793805025 -23.918671822524185" fill="#e5ff1a" stroke="none" /><path d="M 96.58105272829116 120.7198165907248 l -4.134203660761852 25.05447870123905 a46.393277513930684,46.393277513930684 0 0,0 -0.7868101668270967,-0.13679703289200135 l 4.5648627990609985 -24.97960308982604" fill="#d7ff1c" stroke="none" /><path d="M 96.22490169976321 120.6578951692458 l -4.4878308500174375 24.558072893400492 a45.96476657162931,45.96476657162931 0 0,0 -0.7770943200752746,-0.1489319759424922 l 4.909892784664407 -24.477183719109533" fill="#dcff1b" stroke="none" /><path d="M 95.51606077576429 120.51570834832081 l -4.804126025923243 21.980683387433363 a43.499557085674866,43.499557085674866 0 0,0 -0.7301293991921581,-0.16617507415889138 l 5.181775574508264 -21.894731579696785" fill="#fbff18" stroke="none" /><path d="M 95.16358092515715 120.4354850818985 l -6.050634461477229 25.565950419124206 a47.272190586617114,47.272190586617114 0 0,0 -0.7902260584964219,-0.1942183390739373 l 6.489813804716862 -25.458010821736238" fill="#ccff1d" stroke="none" /><path d="M 94.81253420990036 120.34920634021253 l -5.1886415731917515 20.353818660316573 a42.00475982800339,42.00475982800339 0 0,0 -0.6990983336807242,-0.18463822393095766 l 5.538230349683965 -20.261489087082033" fill="#fff016" stroke="none" /><path d="M 94.11515582081647 120.15858648285463 l -6.237493803301476 21.366590931141307 a43.25842620144008,43.25842620144008 0 0,0 -0.7129916130784851,-0.21481852426116135 l 6.604360390820207 -21.256057037774422" fill="#feff18" stroke="none" /><path d="M 93.76903079525671 120.05430185196036 l -6.1792833602152575 19.88795156301179 a41.825805151747105,41.825805151747105 0 0,0 -0.6857015208634243,-0.21953997324013633 l 6.520706226169622 -19.778638743111948" fill="#ffed16" stroke="none" /><path d="M 93.42475214034765 119.94407469862007 l -6.127162187686511 18.584938996997924 a40.56890579455963,40.56890579455963 0 0,0 -0.6613316359569584,-0.22435959732340877 l 6.446163556580695 -18.476716412776394" fill="#ffdd14" stroke="none" /><path d="M 92.40401165467489 119.57807347666478 l -7.601554803616608 19.592420593126946 a42.0153891263134,42.0153891263134 0 0,0 -0.6720039852108933,-0.26740425429708686 l 7.937679864869359 -19.45866949442379" fill="#fff016" stroke="none" /><path d="M 91.7346041902142 119.30500536409082 l -9.04981524141672 21.137128311839227 a43.992984781774936,43.992984781774936 0 0,0 -0.6935794153020101,-0.304044833248251 l 9.412315331376474 -20.978218925296524" fill="#f5ff19" stroke="none" /><path d="M 91.40352486487194 119.15986991738527 l -8.17404180839046 18.218348251605452 a40.9680537985576,40.9680537985576 0 0,0 -0.6409198487594434,-0.2942148674319869 l 8.486429652917321 -18.07494631383939" fill="#ffe215" stroke="none" /><path d="M 91.07499286063937 119.00905698771935 l -8.976851557642618 19.119478580243477 a42.12198676896517,42.12198676896517 0 0,0 -0.6536677088889126,-0.31380022358793414 l 9.304631934531773 -18.96212408015598" fill="#fff116" stroke="none" /><path d="M 90.42595943632237 118.69057910512821 l -6.742426585251795 13.162661742866145 a35.789049341138266,35.789049341138266 0 0,0 -0.5458837187568912,-0.2855805615957495 l 6.968001206535182 -13.044651762325678" fill="#ff9c0e" stroke="none" /><line stroke="#e1ed5e" stroke-width="0.3" x1="58.666819895761336" x2="56.23545636021788" y1="174.27360380694188" y2="178.64263932499728" /><path d="M 58.180547188652646 175.14741091055294 a86.0,86.0 0 0,1 -31.652253787137756,-30.449443065178592" fill="none" id="id20" stroke="none" /><text fill="#e1ed5e" style="font-size:6.75px; font-family:Arial;" text-anchor="middle"><textPath startOffset="22.20632615414155" xlink:href="#id20">August</textPath></text><path d="M 89.7882731507175 118.34994917583269 l -11.590441910456253 20.82742939772789 a44.835271322076466,44.835271322076466 0 0,0 -0.6711439440722368,-0.38109304722520587 l 11.947234621449695 -20.624833184708052" fill="#eaff1a" stroke="none" /><path d="M 89.4739219176387 118.17145234162733 l -11.069118187060765 19.10891711292468 a43.08338947416689,43.08338947416689 0 0,0 -0.6385207156837313,-0.3772492936635358 l 11.39640677377288 -18.915549246967394" fill="#fffd18" stroke="none" /><line stroke="#e1ed5e" stroke-width="0.3" x1="26.63291911575756" x2="22.317208475507996" y1="142.92168965132927" y2="145.44649492493687" /><path d="M 25.769776987707644 143.4266507060508 a86.0,86.0 0 0,1 -11.730757126820373,-40.83630448921669" fill="none" id="id21" stroke="none" /><text fill="#e1ed5e" style="font-size:6.75px; font-family:Arial;" text-anchor="middle"><textPath startOffset="21.46611528233685" xlink:href="#id21">September</textPath></text><line stroke="#e1ed5e" stroke-width="0.3" x1="15.007084014347285" x2="10.007500721073583" y1="101.09737516637583" y2="101.16192664675087" /><path d="M 14.007167355692545 101.11028546245083 a86.0,86.0 0 0,1 10.666146001902534,-42.60595125391555" fill="none" id="id22" stroke="none" /><text fill="#e1ed5e" style="font-size:6.75px; font-family:Arial;" text-anchor="middle"><textPath startOffset="22.20632615414155" xlink:href="#id22">October</textPath></text><line stroke="#e1ed5e" stroke-width="0.3" x1="26.266209847984243" x2="21.928928074336255" y1="57.711370442889674" y2="55.22380399835377" /><path d="M 25.398753493254645 57.213857153982495 a86.0,86.0 0 0,1 29.58750427330803,-30.492523968695096" fill="none" id="id23" stroke="none" /><text fill="#e1ed5e" style="font-size:6.75px; font-family:Arial;" text-anchor="middle"><textPath startOffset="21.46611528233685" xlink:href="#id23">November</textPath></text><line stroke="#e1ed5e" stroke-width="0.3" x1="56.762969772571076" x2="54.21961505331055" y1="26.818313649435495" y2="22.513508569990535" /><path d="M 56.25429882871897 25.957352633546506 a86.0,86.0 0 0,1 42.265352541879196,-11.944610805530505" fill="none" id="id24" stroke="none" /><text fill="#e1ed5e" style="font-size:6.75px; font-family:Arial;" text-anchor="middle"><textPath startOffset="22.20632615414155" xlink:href="#id24">December</textPath></text></svg>