<?xml version="1.0" encoding="utf-8" ?>
<svg baseProfile="full" height="200mm" version="1.1" viewBox="0,0,200,200" width="200mm" xmlns="http://www.w3.org/2000/svg" xmlns:ev="http://www.w3.org/2001/xml-events" xmlns:xlink="http://www.w3.org/1999/xlink"><defs /><rect fill="#1a1a1a" height="200" width="200" x="0" y="0" /><text alignment-baseline="middle" fill="#e1ed5e" style="dominant-baseline: central; font-size:9.0px; font-family:Arial;" text-anchor="middle" x="100.0" y="100.0">2022</text><line stroke="#e1ed5e" stroke-width="0.3" x1="100.0" x2="100.0" y1="15.0" y2="10.0" /><path d="M 100.0 14.0 a86.0,86.0 0 0,1 42.46469731375804,11.215312516191453" fill="none" id="id1" stroke="none" /><text fill="#e1ed5e" style="font-size:6.75px; font-family:Arial;" text-anchor="middle"><textPath startOffset="22.20632615414155" xlink:href="#id1">January</textPath></text><line stroke="#e1ed5e" stroke-width="0.3" x1="143.23703022742887" x2="145.7803849466894" y1="26.81831364943548" y2="22.513508569990506" /><path d="M 143.74570117128098 25.957352633546492 a86.0,86.0 0 0,1 28.547481713284135,27.462654790039103" fill="none" id="id2" stroke="none" /><text fill="#e1ed5e" style="font-size:6.75px; font-family:Arial;" text-anchor="middle"><textPath startOffset="19.985693538727396" xlink:href="#id2">February</textPath></text><line stroke="#e1ed5e" stroke-width="0.3" x1="172.23445277983987" x2="176.4835382374775" y1="55.19839476539836" y2="52.563006222186495" /><path d="M 173.08426987136738 54.67131705675599 a86.0,86.0 0 0,1 12.851231095245387,41.99856678651699" fill="none" id="id3" stroke="none" /><text fill="#e1ed5e" style="font-size:6.75px; font-family:Arial;" text-anchor="middle"><textPath startOffset="22.20632615414155" xlink:href="#id3">March</textPath></text><line stroke="#e1ed5e" stroke-width="0.3" x1="184.98032266829074" x2="189.97916517819016" y1="98.17113171792111" y2="98.06355123074" /><path d="M 185.9800911702706 98.14961562048488 a86.0,86.0 0 0,1 -9.607161424134198,41.387399972396054" fill="none" id="id4" stroke="none" /><text fill="#e1ed5e" style="font-size:6.75px; font-family:Arial;" text-anchor="middle"><textPath startOffset="21.466115282336823" xlink:href="#id4">April</textPath></text><line stroke="#e1ed5e" stroke-width="0.3" x1="174.80103733775053" x2="179.2010983576182" y1="140.37084112569926" y2="142.7455964860345" /><path d="M 175.68104954172406 140.8457921977663 a86.0,86.0 0 0,1 -30.038265399797805,32.042727171017184" fill="none" id="id5" stroke="none" /><text fill="#e1ed5e" style="font-size:6.75px; font-family:Arial;" text-anchor="middle"><textPath startOffset="22.206326154141568" xlink:href="#id5">May</textPath></text><line stroke="#e1ed5e" stroke-width="0.3" x1="143.8653032363475" x2="146.44561519142675" y1="172.8068346515853" y2="177.08958963109032" /><path d="M 144.38136562736335 173.6633856474863 a86.0,86.0 0 0,1 -40.68145358897372,12.25698825130547" fill="none" id="id6" stroke="none" /><text fill="#e1ed5e" style="font-size:6.75px; font-family:Arial;" text-anchor="middle"><textPath startOffset="21.466115282336833" xlink:href="#id6">June</textPath></text><line stroke="#e1ed5e" stroke-width="0.3" x1="102.19456741930631" x2="102.32365962044197" y1="184.97166512339345" y2="189.96999836594603" /><path d="M 102.22038585953345 185.97133177190398 a86.0,86.0 0 0,1 -42.740103519485714,-10.115201625700543" fill="none" id="id7" stroke="none" /><text fill="#e1ed5e" style="font-size:6.75px; font-family:Arial;" text-anchor="middle"><textPath startOffset="22.20632615414155" xlink:href="#id7">July</textPath></text><line stroke="#e1ed5e" stroke-width="0.3" x1="58.666819895761336" x2="56.23545636021788" y1="174.27360380694188" y2="178.64263932499728" /><path d="M 58.180547188652646 175.14741091055294 a86.0,86.0 0 0,1 -31.652253787137756,-30.449443065178592" fill="none" id="id8" stroke="none" /><text fill="#e1ed5e" style="font-size:6.75px; font-family:Arial;" text-anchor="middle"><textPath startOffset="22.20632615414155" xlink:href="#id8">August</textPath></text><path d="M 83.06392112726016 112.41649034213515 l -21.507187286181757 15.767745605814275 a47.66797529720945,47.66797529720945 0 0,0 -0.4794495066338569,-0.6659134308755499 l 21.77541658519122 -15.395198569487588" fill="#c7ff1e" stroke="none" /><path d="M 82.85270091963577 112.12312394758628 l -15.644128499465983 11.060383793513713 a40.15909304136353,40.15909304136353 0 0,0 -0.39420757184467337,-0.5678854086322687 l 15.83219697847279 -10.789457122694431" fill="#ffd814" stroke="none" /><path d="M 82.6465618267979 111.8261652097733 l -18.806336453439293 12.816298399726056 a43.75820281724329,43.75820281724329 0 0,0 -0.41882204186063476,-0.6260821260607838 l 19.02416160071066 -12.49067935945945" fill="#f8ff18" stroke="none" /><path d="M 82.44556493220864 111.52570212397912 l -12.358240937120486 8.114040882976488 a35.78390268198944,35.78390268198944 0 0,0 -0.3336340054534583,-0.5178073855033117 l 12.496079805950991 -7.900111897551727" fill="#ff9c0e" stroke="none" /><path d="M 82.24976979558568 111.22182372390057 l -37.90675534388531 23.964924483532492 a65.84684722700797,65.84684722700797 0 0,0 -0.5974358458631915,-0.9632568112460871 l 38.313655829416454 -23.30887134092114" fill="#35ff68" stroke="none" /><line stroke="#e1ed5e" stroke-width="0.3" x1="26.63291911575756" x2="22.317208475507996" y1="142.92168965132927" y2="145.44649492493687" /><path d="M 25.769776987707644 143.4266507060508 a86.0,86.0 0 0,1 -11.730757126820373,-40.83630448921669" fill="none" id="id9" stroke="none" /><text fill="#e1ed5e" style="font-size:6.75px; font-family:Arial;" text-anchor="middle"><textPath startOffset="21.46611528233685" xlink:href="#id9">September</textPath></text><path d="M 81.51974371655577 109.97397251340807 l -22.76231587471416 12.285041364891645 a46.86590932709235,46.86590932709235 0 0,0 -0.3770418014558176,-0.713220996441609 l 22.970410184394865 -11.891405353363911" fill="#d1ff1c" stroke="none" /><path d="M 81.35079622478065 109.6543875284942 l -15.371910542535764 7.957786467440762 a38.309592692755814,38.309592692755814 0 0,0 -0.29812402846649866,-0.5882269911983194 l 15.50661324078853 -7.692005264539757" fill="#ffbf11" stroke="none" /><path d="M 81.18737489456691 109.33194174019688 l -3.8889120713790635 1.9290822349070744 a25.341082280716627,25.341082280716627 0 0,0 -0.19047653866045572,-0.3924380869276894 l 3.921541866654238 -1.8618551920141004" fill="#ff0400" stroke="none" /><path d="M 81.02952815118164 109.00673069616217 l -5.88044018298488 2.7918937138263313 a27.509550464891277,27.509550464891277 0 0,0 -0.19941199333724755,-0.42951569312467913 l 5.927626793161954 -2.690257953422825" fill="#ff2503" stroke="none" /><path d="M 80.73074385275274 108.34839909993369 l -15.663464304783973 6.786190930498509 a38.070339814204694,38.070339814204694 0 0,0 -0.25534142897648554,-0.6035517114616484 l 15.777956714952767 -6.515564693370701" fill="#ffbc11" stroke="none" /><path d="M 80.20201598880116 107.00284435728193 l -15.228038591459185 5.3863860109367785 a37.152594639926605,37.152594639926605 0 0,0 -0.20807075161451583,-0.6047509999516757 l 15.318500174016929 -5.123462307895806" fill="#ffaf10" stroke="none" /><path d="M 79.97269907076064 106.31721596034903 l -17.298702026451153 5.456533405121695 a39.138876718285346,39.138876718285346 0 0,0 -0.19713549099893876,-0.644250190767708 l 17.39006428995622 -5.157956241801939" fill="#ffca12" stroke="none" /><path d="M 79.86692584326677 105.97154293290107 l -16.751716579886665 4.968619992050701 a38.473041893106526,38.473041893106526 0 0,0 -0.18285204106292444,-0.6365319428742081 l 16.834761257835694 -4.679530573671896" fill="#ffc112" stroke="none" /><path d="M 79.76711848015287 105.62410040840567 l -6.678653998774894 1.8564543387092332 a27.93187146065651,27.93187146065651 0 0,0 -0.12477821871897453,-0.46434617049002813 l 6.709620293835643 -1.741217235043666" fill="#ff2b04" stroke="none" /><path d="M 79.67330655649465 105.27499134158121 l -6.605685742706167 1.7142451227902447 a27.8244941550566,27.8244941550566 0 0,0 -0.11631789391796403,-0.4646321658584923 l 6.63421495091919 -1.6002851175343604" fill="#ff2a04" stroke="none" /><path d="M 79.58551787078972 104.9243191809786 l -3.9659963576700266 0.9566655579188713 a25.07974706308616,25.07974706308616 0 0,0 -0.0976192538829278,-0.4205411907944134 l 3.9818761774835094 -0.8882557097758836" fill="#ff0000" stroke="none" /><path d="M 79.50377843672027 104.57218783832718 l -13.779206222214116 3.073791865320192 a35.11788654670425,35.11788654670425 0 0,0 -0.1265346973105908,-0.5911279802652843 l 13.830074958249147 -2.8361500656387437" fill="#ff930d" stroke="none" /><path d="M 79.4281124754447 104.21870165774334 l -20.937685864349266 4.293716362186315 a42.37341080766188,42.37341080766188 0 0,0 -0.14037719190184078,-0.715780277206115 l 21.008492989226774 -3.9326723579122445" fill="#fff417" stroke="none" /><path d="M 79.35854240842038 103.8639653848113 l -6.571643555076454 1.2301749091833611 a27.685793095973146,27.685793095973146 0 0,0 -0.08365533660002968,-0.4691835539969853 l 6.591845334015673 -1.116872604453162" fill="#ff2803" stroke="none" /><path d="M 79.29508885075956 103.50808413554451 l -17.188663205586966 2.9123175785735915 a38.433638073378944,38.433638073378944 0 0,0 -0.10490231942281819,-0.6532268431829831 l 17.236247279371074 -2.6160115056973945" fill="#ffc111" stroke="none" /><path d="M 79.23777060512086 103.15116336523772 l -20.438755903649607 3.102068550042228 a41.67282206613632,41.67282206613632 0 0,0 -0.10153473751572752,-0.7101337177010457 l 20.48912469218193 -2.7497893603607815" fill="#ffeb16" stroke="none" /><path d="M 79.18660465613746 102.79330883721812 l -18.767375164544507 2.518718067495346 a39.935636014411806,39.935636014411806 0 0,0 -0.08557349275789279,-0.6821049337909462 l 18.807950166549247 -2.1952953794169914" fill="#ffd513" stroke="none" /><path d="M 79.1416061653843 102.43462659150553 l -22.800432875870605 2.6613046343630073 a43.95522340740693,43.95522340740693 0 0,0 -0.08124955284202996,-0.7522699507141988 l 22.842864730213687 -2.2684383617640265" fill="#f5ff19" stroke="none" /><path d="M 79.10278846688536 102.07522291339032 l -17.234496059522105 1.711492515007559 a38.31926849074781,38.31926849074781 0 0,0 -0.05953245737513301,-0.6569357063749384 l 17.261403113174314 -1.4145754200840546" fill="#ffbf11" stroke="none" /><path d="M 79.0235259727143 100.99374915477108 l -24.597984537551646 1.165316263899621 a45.62557218227708,45.62557218227708 0 0,0 -0.030412414190260004,-0.7848092757258921 l 24.614399084593106 -0.7417297411597321" fill="#e0ff1b" stroke="none" /><line stroke="#e1ed5e" stroke-width="0.3" x1="15.007084014347285" x2="10.007500721073583" y1="101.09737516637583" y2="101.16192664675087" /><path d="M 14.007167355692545 101.11028546245083 a86.0,86.0 0 0,1 10.666146001902534,-42.60595125391555" fill="none" id="id10" stroke="none" /><text fill="#e1ed5e" style="font-size:6.75px; font-family:Arial;" text-anchor="middle"><textPath startOffset="22.20632615414155" xlink:href="#id10">October</textPath></text><path d="M 79.00175016825051 100.2711162175752 l -16.796502169161617 0.21686588992342734 a37.79790212892262,37.79790212892262 0 0,0 -0.002800109466336417,-0.6506468268281261 l 16.797746575917458 0.07229041510837411" fill="#ffb811" stroke="none" /><path d="M 79.00019446554 99.90962569577889 l -33.6359899691975 -0.1447551114350342 a54.63630145022252,54.63630145022252 0 0,0 0.012142249046787429,-0.9404305699015949 l 33.628514713033 0.723721939397101" fill="#76ff27" stroke="none" /><path d="M 79.01574976396665 99.18683210126434 l -62.95275070810006 -2.4395036962069616 a84.0,84.0 0 0,0 0.06842556706600478,-1.4443555735079636 l 62.90143153280056 3.522770376337934" fill="#4dd2ff" stroke="none" /><path d="M 79.03285615573316 98.82574320788736 l -6.5843641248087765 -0.3687547694968316 a27.594682024790544,27.594682024790544 0 0,0 0.030642460773298026,-0.47402530548873983 l 6.577041073031065 0.4820391392385832" fill="#ff2603" stroke="none" /><path d="M 79.05617556472873 98.46500227214037 l -18.602477622537304 -1.3633976436063735 a39.652373222504224,39.652373222504224 0 0,0 0.05575032319887568,-0.6802951534167252 l 18.57625281551893 1.683406714230877" fill="#ffd113" stroke="none" /><path d="M 79.08570108090925 98.10471618934814 l -18.942285396391167 -1.7165771125015554 a40.01990570485296,40.01990570485296 0 0,0 0.06807743150969152,-0.6855304448065225 l 18.909930839199244 2.0423830880125085" fill="#ffd614" stroke="none" /><path d="M 79.21141760316559 97.0276538004421 l -18.33134282791041 -2.6210107138247953 a39.517770574136804,39.517770574136804 0 0,0 0.1020764837173659,-0.6725564894991505 l 18.283510450753745 2.936166315716038" fill="#ffcf13" stroke="none" /><path d="M 79.26566170972629 96.67025291283419 l -31.276212643719056 -5.022676706150493 a52.67694364407082,52.67694364407082 0 0,0 0.15147916987950266,-0.8940386353730028 l 31.18512161231933 5.560301129839324" fill="#8cff24" stroke="none" /><path d="M 79.32604984820605 96.31383870115002 l -51.36331220679342 -9.158068595855728 a73.17336543926348,73.17336543926348 0 0,0 0.23176540148913147,-1.2381000422101351 l 51.19806108139443 10.040846715528435" fill="#3fffbd" stroke="none" /><path d="M 79.3925641242962 95.95851677861259 l -14.863733294992777 -2.915041399678217 a36.146881983646495,36.146881983646495 0 0,0 0.12500057238714316,-0.6095471840094163 l 14.811353426690639 3.1704642398510363" fill="#ffa10e" stroke="none" /><path d="M 79.46518482838121 95.60439243477599 l -8.992367607504821 -1.924873379890642 a30.196075941243286,30.196075941243286 0 0,0 0.11317146033755132,-0.5073254659998997 l 8.957901760165232 2.079377015440501" fill="#ff4d07" stroke="none" /><path d="M 79.54389044137918 95.25157060432595 l -33.902826423960136 -7.869784678588755 a55.804240408612856,55.804240408612856 0 0,0 0.22525567585763798,-0.9338302007436198 l 33.76233794784169 8.452200110991772" fill="#69ff28" stroke="none" /><path d="M 79.81627453868168 94.20196356495316 l -24.43976286092341 -7.020638276274059 a46.4281609737011,46.4281609737011 0 0,0 0.22726386457356487,-0.7662207724231421 l 24.315293099238136 7.4402884354437395" fill="#d6ff1c" stroke="none" /><path d="M 80.14247586403 93.16781622104843 l -16.07390710006266 -5.530391734712505 a37.99869766190402,37.99869766190402 0 0,0 0.21812504458962012,-0.6166688740892606 l 15.976328974663229 5.806258235228377" fill="#ffbb11" stroke="none" /><path d="M 80.2630227832202 92.82701384747504 l -36.36674064563062 -13.216721294170666 a59.69394716172474,59.69394716172474 0 0,0 0.35928766740325235,-0.9627123220509135 l 36.13384838972574 13.840756753250922" fill="#40ff2d" stroke="none" /><path d="M 80.65960295795068 91.81776055985345 l -38.513534883613445 -16.29371741536752 a62.81838825735828,62.81838825735828 0 0,0 0.4298850469186589,-0.9922339581265175 l 38.22735912685211 16.954250518080638" fill="#31ff42" stroke="none" /><path d="M 80.803312248108 91.48605970444005 l -16.3499621174808 -7.251386442391796 a38.88585660738565,38.88585660738565 0 0,0 0.27664080381136946,-0.6095413410702138 l 16.222718996706078 7.5317497923040815" fill="#ffc712" stroke="none" /><path d="M 81.10775173730289 90.83032412892265 l -30.95881986313543 -15.026392811942383 a55.41280297007006,55.41280297007006 0 0,0 0.4238815214917688,-0.854519281726355 l 30.69557832869025 15.5570716821677" fill="#6eff28" stroke="none" /><path d="M 81.26839172434947 90.50648371742162 l -24.051006975483983 -12.18948330405622 a47.96357616776092,47.96357616776092 0 0,0 0.3795759005232492,-0.7332198232283494 l 23.83762164180062 12.601675849544904" fill="#c4ff1e" stroke="none" /><path d="M 81.6062741919709 89.86733742301443 l -33.77458457678955 -18.605608932426463 a59.5602288255801,59.5602288255801 0 0,0 0.5024114009202771,-0.8937338216665651 l 33.44931553457685 19.18422626402781" fill="#41ff2d" stroke="none" /><line stroke="#e1ed5e" stroke-width="0.3" x1="26.266209847984243" x2="21.928928074336255" y1="57.711370442889674" y2="55.22380399835377" /><path d="M 25.398753493254645 57.213857153982495 a86.0,86.0 0 0,1 29.58750427330803,-30.492523968695096" fill="none" id="id11" stroke="none" /><text fill="#e1ed5e" style="font-size:6.75px; font-family:Arial;" text-anchor="middle"><textPath startOffset="21.46611528233685" xlink:href="#id11">November</textPath></text><path d="M 81.96595687620814 89.24020034530311 l -4.499367808920667 -2.6844948669835316 a26.239353335175295,26.239353335175295 0 0,0 0.23475999785072865,-0.38588371048136016 l 4.452492012783721 2.761546350671966" fill="#ff1202" stroke="none" /><path d="M 82.15384107792192 88.93136811851018 l -6.86706439570486 -4.259124231405848 a29.080638132802743,29.080638132802743 0 0,0 0.26750365575308693,-0.4231265422595029 l 6.79273314370581 4.376698421379567" fill="#ff3c05" stroke="none" /><path d="M 82.7489923806493 88.02491185347247 l -39.23304146742797 -27.234300754804398 a68.75917378251074,68.75917378251074 0 0,0 0.683293897196287,-0.9664707599846948 l 38.7584349504278 27.90559801512088" fill="#39ff8b" stroke="none" /><path d="M 83.39014120810768 87.1503855733568 l -15.801208027763554 -12.224031111634103 a40.97761526696462,40.97761526696462 0 0,0 0.4364036400688967,-0.5541883054039841 l 15.588450307100686 12.494211810991136" fill="#ffe215" stroke="none" /><path d="M 83.84228863543731 86.58626213691792 l -13.862422748682597 -11.50824523984723 a39.01683859514924,39.01683859514924 0 0,0 0.43343877807306,-0.5130547996102743 l 13.662273357122412 11.74515898908662" fill="#ffc812" stroke="none" /><path d="M 84.80347519578584 85.50635884689758 l -15.319562702410348 -14.610988189195362 a42.17002544301467,42.17002544301467 0 0,0 0.5055096383121681,-0.5209721178323936 l 15.06578880039506 14.872524502577878" fill="#fff216" stroke="none" /><path d="M 85.05521093208273 85.24692304244772 l -19.215101330505693 -18.968609552655415 a48.00052346719767,48.00052346719767 0 0,0 0.5855245564535616,-0.5830101279290588 l 18.88574097388482 19.296555531234585" fill="#c3ff1e" stroke="none" /><path d="M 85.31137513191541 84.99185889309783 l -22.26066782245924 -22.744895918695413 a52.825581255558546,52.825581255558546 0 0,0 0.6553309087136313,-0.6304278149645082 l 21.86585367013318 23.124706820422237" fill="#8bff24" stroke="none" /><path d="M 85.83668400450813 84.49514656593479 l -27.832486585642616 -30.468756423519185 a62.26732881512587,62.26732881512587 0 0,0 0.7975822515722677,-0.7160772204829594 l 27.30389334647438 30.943332652771424" fill="#31ff3c" stroke="none" /><path d="M 86.10567301691215 84.25364557470407 l -22.311775321036485 -25.285796317464598 a54.722200601157674,54.722200601157674 0 0,0 0.7116653493272105,-0.6171491780697493 l 21.873216173062502 25.666110488954025" fill="#75ff27" stroke="none" /><path d="M 86.65592168130627 83.78471172551755 l -20.90095356511682 -25.398156333896406 a53.8924946620382,53.8924946620382 0 0,0 0.7213808139228447,-0.5833064495193558 l 20.460669352629473 25.7541688806799" fill="#7fff26" stroke="none" /><path d="M 86.93701828274178 83.55741782278169 l -20.504302915315268 -25.809091137762913 a53.96263981237483,53.96263981237483 0 0,0 0.7322664563897479,-0.5715455842302625 l 20.057003903766095 26.158215111216396" fill="#7eff26" stroke="none" /><path d="M 87.51073957382395 83.11751280151077 l -31.391227095252 -42.433416511174784 a73.7826105394241,73.7826105394241 0 0,0 1.0275271439952098,-0.7465421687924104 l 30.656154634903007 42.967477914783856" fill="#40ffc3" stroke="none" /><line stroke="#e1ed5e" stroke-width="0.3" x1="56.762969772571076" x2="54.21961505331055" y1="26.818313649435495" y2="22.513508569990535" /><path d="M 56.25429882871897 25.957352633546506 a86.0,86.0 0 0,1 42.265352541879196,-11.944610805530505" fill="none" id="id12" stroke="none" /><text fill="#e1ed5e" style="font-size:6.75px; font-family:Arial;" text-anchor="middle"><textPath startOffset="22.20632615414155" xlink:href="#id12">December</textPath></text></svg>